<?xml version="1.0" encoding="UTF-8"?>
<svg width="169px" height="48px" viewBox="0 0 169 48" version="1.1" xmlns="http://www.w3.org/2000/svg" xmlns:xlink="http://www.w3.org/1999/xlink">
    <!-- Generator: Sketch 53.2 (72643) - https://sketchapp.com -->
    <title>CCIQ_Logo_LAND_rev</title>
    <desc>Created with Sketch.</desc>
    <defs>
        <polygon id="path-1" points="0.155911765 0.361428571 37.7043824 0.361428571 37.7043824 45.9671429 0.155911765 45.9671429"></polygon>
        <polygon id="path-3" points="0.0327731092 0.365538462 64.7995378 0.365538462 64.7995378 35.5087385 0.0327731092 35.5087385"></polygon>
    </defs>
    <g id="Page-1" stroke="none" stroke-width="1" fill="none" fill-rule="evenodd">
        <g id="Landing-page" transform="translate(-635.000000, -3638.000000)">
            <g id="CCIQ_Logo_LAND_rev" transform="translate(635.000000, 3637.000000)">
                <polyline id="Fill-1" fill="#FFFFFE" points="78 12.9928806 78 3.99288061 69 3.99288061 78 12.9928806"></polyline>
                <polyline id="Fill-2" fill="#FFFFFE" points="69 13.9928806 69 35.9928806 78 35.9928806 78 23.0619973 69 13.9928806"></polyline>
                <g id="Group-6" transform="translate(83.000000, 2.992881)">
                    <mask id="mask-2" fill="white">
                        <use xlink:href="#path-1"></use>
                    </mask>
                    <g id="Clip-4"></g>
                    <path d="M27.2376176,17.8304762 L27.2376176,17.7351905 C27.2376176,12.9145 23.6823824,8.71480952 18.4707941,8.71480952 C13.3072647,8.71480952 9.84926471,12.8186667 9.84926471,17.6399048 L9.84926471,17.7351905 C9.84926471,22.5569762 13.4056176,26.756119 18.5680294,26.756119 C23.7796176,26.756119 27.2376176,22.6511667 27.2376176,17.8304762 Z M0.155911765,17.8304762 L0.155911765,17.7351905 C0.155911765,8.14145238 8.0465,0.361428571 18.5680294,0.361428571 C29.0884412,0.361428571 36.8817941,8.04616667 36.8817941,17.6399048 L36.8817941,17.7351905 C36.8817941,27.3294762 28.9912059,35.1095 18.4707941,35.1095 C7.94926471,35.1095 0.155911765,27.4247619 0.155911765,17.8304762 L0.155911765,17.8304762 Z" id="Fill-3" fill="#FFFFFE" mask="url(#mask-2)"></path>
                    <polyline id="Fill-5" fill="#FFFFFE" mask="url(#mask-2)" points="25.1548824 20.7164286 14.1795882 20.7164286 26.7290882 33.3587619 14.1795882 46 25.1548824 46 37.7043824 33.3587619 25.1548824 20.7164286"></polyline>
                </g>
                <path d="M128.632566,11.2118876 L127.360558,11.2118876 L127.360558,13.1291151 L128.632566,13.1291151 C129.248776,13.1291151 129.640483,12.7454602 129.640483,12.1754737 C129.640483,11.6049638 129.248776,11.2118876 128.632566,11.2118876 Z M128.700802,14.3580668 L127.360558,14.3580668 L127.360558,16.9928806 L126,16.9928806 L126,9.99288061 L128.700802,9.99288061 C130.139494,9.99288061 131,10.9857773 131,12.1754737 C131,13.3651701 130.139494,14.3580668 128.700802,14.3580668 L128.700802,14.3580668 Z" id="Fill-7" fill="#FFFFFE"></path>
                <path d="M134.548835,13.3064357 C134.412652,13.1655906 134.231559,13.090673 133.995895,13.090673 C133.759749,13.090673 133.587348,13.1655906 133.451165,13.3064357 C133.206326,13.5591577 133.179283,13.9816929 133.179283,14.4881358 C133.179283,14.9945787 133.206326,15.4266035 133.451165,15.679825 C133.587348,15.8201706 133.759749,15.8955876 133.995895,15.8955876 C134.231559,15.8955876 134.412652,15.8201706 134.548835,15.679825 C134.793674,15.4266035 134.8212,14.9945787 134.8212,14.4881358 C134.8212,13.9816929 134.793674,13.5591577 134.548835,13.3064357 Z M135.464928,16.392541 C135.174695,16.7116899 134.694193,16.9928806 133.995895,16.9928806 C133.297115,16.9928806 132.825305,16.7116899 132.535555,16.392541 C132.109139,15.9330464 132,15.3796552 132,14.4881358 C132,13.6066055 132.109139,13.0527148 132.535555,12.5932202 C132.825305,12.2740713 133.297115,11.9928806 133.995895,11.9928806 C134.694193,11.9928806 135.174695,12.2740713 135.464928,12.5932202 C135.891827,13.0527148 136,13.6066055 136,14.4881358 C136,15.3796552 135.891827,15.9330464 135.464928,16.392541 L135.464928,16.392541 Z" id="Fill-8" fill="#FFFFFE"></path>
                <polyline id="Fill-9" fill="#FFFFFE" points="142.306089 16.9928806 141.166797 16.9928806 140.005387 13.8547241 138.844545 16.9928806 137.704119 16.9928806 136 11.9928806 137.469909 11.9928806 138.364783 15.0830094 139.493868 11.9928806 140.505565 11.9928806 141.645424 15.0830094 142.540299 11.9928806 144 11.9928806 142.306089 16.9928806"></polyline>
                <path d="M148.458607,13.5127088 C148.303823,13.2215291 147.984873,13.0062659 147.5,13.0062659 C147.015713,13.0062659 146.696177,13.2215291 146.541979,13.5127088 C146.454034,13.6910127 146.420614,13.8218687 146.410061,14.0376314 L148.589939,14.0376314 C148.579386,13.8218687 148.545966,13.6910127 148.458607,13.5127088 Z M146.410061,14.8727128 C146.410061,15.5015211 146.861515,15.9610157 147.665338,15.9610157 C148.292683,15.9610157 148.601665,15.8111805 148.964587,15.5015211 L149.834662,16.2237267 C149.250704,16.7211795 148.689611,16.9928806 147.654198,16.9928806 C146.299836,16.9928806 145,16.467958 145,14.4881358 C145,12.8933901 146.01372,11.9928806 147.5,11.9928806 C149.097092,11.9928806 150,12.9872868 150,14.3288111 L150,14.8727128 L146.410061,14.8727128 L146.410061,14.8727128 Z" id="Fill-10" fill="#FFFFFE"></path>
                <path d="M153.971077,13.3970629 C153.761492,13.2071447 153.583205,13.1030938 153.246751,13.1030938 C152.827022,13.1030938 152.365377,13.3874659 152.365377,14.0137918 L152.365377,16.9928806 L151,16.9928806 L151,12.0499571 L152.33352,12.0499571 L152.33352,12.5242474 C152.5962,12.2393702 153.120442,11.9928806 153.708956,11.9928806 C154.244376,11.9928806 154.622188,12.1161254 155,12.457574 L153.971077,13.3970629" id="Fill-11" fill="#FFFFFE"></path>
                <path d="M156.014812,16.9928806 L156.992794,16.9928806 L156.992794,11.8997951 L156.014812,11.8997951 L156.014812,16.9928806 Z M156,11.0290888 L157,11.0290888 L157,9.99288061 L156,9.99288061 L156,11.0290888 Z" id="Fill-12" fill="#FFFFFE"></path>
                <path d="M161.799115,16.9928806 L161.799115,14.0041949 C161.799115,13.3303895 161.383575,13.1030938 161.004426,13.1030938 C160.625768,13.1030938 160.201377,13.3303895 160.201377,14.0041949 L160.201377,16.9928806 L159,16.9928806 L159,12.0499571 L160.173346,12.0499571 L160.173346,12.5050536 C160.487583,12.1636049 160.930661,11.9928806 161.37374,11.9928806 C161.854684,11.9928806 162.242193,12.154008 162.510204,12.4292883 C162.898205,12.8278134 163,13.2925068 163,13.8334706 L163,16.9928806 L161.799115,16.9928806" id="Fill-13" fill="#FFFFFE"></path>
                <path d="M166.995059,13.1242873 C166.280632,13.1242873 166.206028,13.7620548 166.206028,14.4291627 C166.206028,15.0962706 166.280632,15.7443329 166.995059,15.7443329 C167.709486,15.7443329 167.792984,15.0962706 167.792984,14.4291627 C167.792984,13.7620548 167.709486,13.1242873 166.995059,13.1242873 Z M166.874506,18.9928806 C166.132411,18.9928806 165.622036,18.8384575 165.120553,18.3355529 L165.872036,17.5423328 C166.141304,17.813088 166.410573,17.9294201 166.81917,17.9294201 C167.54249,17.9294201 167.792984,17.3976898 167.792984,16.885005 L167.792984,16.372835 C167.477767,16.7398473 167.115613,16.8757396 166.642292,16.8757396 C166.168972,16.8757396 165.76087,16.7110217 165.491601,16.4304863 C165.037055,15.9569221 165,15.3093745 165,14.4291627 C165,13.5494657 165.037055,12.9111834 165.491601,12.4376192 C165.76087,12.1570839 166.178854,11.9928806 166.652174,11.9928806 C167.162549,11.9928806 167.496542,12.1375236 167.83004,12.5246109 L167.83004,12.0510467 L169,12.0510467 L169,16.9045653 C169,18.1131836 168.173913,18.9928806 166.874506,18.9928806 L166.874506,18.9928806 Z" id="Fill-14" fill="#FFFFFE"></path>
                <path d="M128.000244,21.9370532 C127.28465,21.9370532 127.19282,22.560867 127.19282,23.3896778 C127.19282,24.2179696 127.28465,24.851644 128.000244,24.851644 C128.71535,24.851644 128.807669,24.2179696 128.807669,23.3896778 C128.807669,22.560867 128.71535,21.9370532 128.000244,21.9370532 Z M129.513982,25.5346214 C129.247771,25.8169464 128.816461,25.9928806 128.348516,25.9928806 C127.843937,25.9928806 127.486384,25.8460093 127.156185,25.4562555 L127.156185,25.9337169 L126,25.9337169 L126,18.9928806 L127.19282,18.9928806 L127.19282,21.3033788 C127.504946,20.9333462 127.862498,20.7963355 128.348516,20.7963355 C128.816461,20.7963355 129.247771,20.9717507 129.513982,21.2545947 C129.991208,21.761638 130,22.6293723 130,23.3896778 C130,24.1499832 129.991208,25.0270591 129.513982,25.5346214 L129.513982,25.5346214 Z" id="Fill-15" fill="#FFFFFE"></path>
                <path d="M133.826509,25.9353049 L133.826509,25.4797493 C133.512234,25.8216685 133.069101,25.9928806 132.625968,25.9928806 C132.145457,25.9928806 131.757408,25.8307594 131.489364,25.5555069 C131.101316,25.1575271 131,24.6928806 131,24.1519715 L131,20.9928806 L132.200541,20.9928806 L132.200541,23.9812645 C132.200541,24.6550018 132.616624,24.8822746 132.995328,24.8822746 C133.374032,24.8822746 133.798967,24.6550018 133.798967,23.9812645 L133.798967,20.9928806 L135,20.9928806 L135,25.9353049 L133.826509,25.9353049" id="Fill-16" fill="#FFFFFE"></path>
                <path d="M139.004567,25.9928806 C138.264271,25.9928806 137.596082,25.907991 137,25.2887959 L137.767696,24.491832 C138.15563,24.8948081 138.661339,24.9512348 139.022834,24.9512348 C139.429035,24.9512348 139.853503,24.8104178 139.853503,24.444893 C139.853503,24.2007104 139.727076,24.0319298 139.356448,23.9944785 L138.616152,23.9195759 C137.767696,23.8351856 137.243721,23.4506855 137.243721,22.5503559 C137.243721,21.537173 138.101791,20.9928806 139.058887,20.9928806 C139.79053,20.9928806 140.404399,21.1247092 140.855787,21.5651367 L140.133277,22.3251487 C139.862156,22.0719778 139.447302,21.9965758 139.04062,21.9965758 C138.571446,21.9965758 138.372431,22.221783 138.372431,22.4659656 C138.372431,22.6437345 138.445019,22.8504658 138.859873,22.8879171 L139.600649,22.9628197 C140.530826,23.0566977 141,23.5725271 141,24.397954 C141,25.4765518 140.11501,25.9928806 139.004567,25.9928806" id="Fill-17" fill="#FFFFFE"></path>
                <path d="M143.014812,25.9928806 L143.992794,25.9928806 L143.992794,20.8994164 L143.014812,20.8994164 L143.014812,25.9928806 Z M143,20.0291658 L144,20.0291658 L144,18.9928806 L143,18.9928806 L143,20.0291658 Z" id="Fill-18" fill="#FFFFFE"></path>
                <path d="M148.799115,25.9928806 L148.799115,23.0041949 C148.799115,22.3308946 148.383575,22.1030938 148.004426,22.1030938 C147.625768,22.1030938 147.201377,22.3308946 147.201377,23.0041949 L147.201377,25.9928806 L146,25.9928806 L146,21.0499571 L147.173346,21.0499571 L147.173346,21.5055587 C147.487583,21.1636049 147.930661,20.9928806 148.37374,20.9928806 C148.854684,20.9928806 149.242193,21.1545131 149.510204,21.4297934 C149.898205,21.8278134 150,22.2930119 150,22.8334706 L150,25.9928806 L148.799115,25.9928806" id="Fill-19" fill="#FFFFFE"></path>
                <path d="M154.458426,22.5124052 C154.303624,22.221783 153.984637,22.0060635 153.499707,22.0060635 C153.015363,22.0060635 152.69579,22.221783 152.541574,22.5124052 C152.453618,22.6906735 152.420195,22.8220028 152.40964,23.0377223 L154.59036,23.0377223 C154.579219,22.8220028 154.545796,22.6906735 154.458426,22.5124052 Z M152.40964,23.8726369 C152.40964,24.5008203 152.861147,24.9607224 153.665064,24.9607224 C154.293069,24.9607224 154.601501,24.8104178 154.964466,24.5008203 L155.835229,25.223381 C155.251202,25.7207344 154.690043,25.9928806 153.653923,25.9928806 C152.299402,25.9928806 151,25.4670642 151,23.4881368 C151,21.8937095 152.013252,20.9928806 153.499707,20.9928806 C155.096986,20.9928806 156,21.9875875 156,23.3288439 L156,23.8726369 L152.40964,23.8726369 L152.40964,23.8726369 Z" id="Fill-20" fill="#FFFFFE"></path>
                <path d="M159.004567,25.9928806 C158.264271,25.9928806 157.596082,25.907991 157,25.2887959 L157.767215,24.491832 C158.15563,24.8948081 158.661339,24.9512348 159.022834,24.9512348 C159.428554,24.9512348 159.853022,24.8104178 159.853022,24.444893 C159.853022,24.2007104 159.727076,24.0319298 159.356448,23.9944785 L158.616152,23.9195759 C157.767215,23.8351856 157.243721,23.4506855 157.243721,22.5503559 C157.243721,21.537173 158.101791,20.9928806 159.058887,20.9928806 C159.790049,20.9928806 160.404399,21.1247092 160.855306,21.5651367 L160.132797,22.3251487 C159.862156,22.0719778 159.447302,21.9965758 159.04062,21.9965758 C158.570965,21.9965758 158.372431,22.221783 158.372431,22.4659656 C158.372431,22.6437345 158.445019,22.8504658 158.859873,22.8879171 L159.600649,22.9628197 C160.530345,23.0566977 161,23.5725271 161,24.397954 C161,25.4765518 160.11501,25.9928806 159.004567,25.9928806" id="Fill-21" fill="#FFFFFE"></path>
                <path d="M164.004567,25.9928806 C163.26379,25.9928806 162.596082,25.907991 162,25.2887959 L162.767215,24.491832 C163.15563,24.8948081 163.661339,24.9512348 164.022834,24.9512348 C164.428554,24.9512348 164.853022,24.8104178 164.853022,24.444893 C164.853022,24.2007104 164.726595,24.0319298 164.356448,23.9944785 L163.616152,23.9195759 C162.767215,23.8351856 162.24324,23.4506855 162.24324,22.5503559 C162.24324,21.537173 163.101791,20.9928806 164.058887,20.9928806 C164.790049,20.9928806 165.404399,21.1247092 165.855306,21.5651367 L165.132797,22.3251487 C164.862156,22.0719778 164.446821,21.9965758 164.04062,21.9965758 C163.570965,21.9965758 163.372431,22.221783 163.372431,22.4659656 C163.372431,22.6437345 163.444538,22.8504658 163.859873,22.8879171 L164.600649,22.9628197 C165.530345,23.0566977 166,23.5725271 166,24.397954 C166,25.4765518 165.11501,25.9928806 164.004567,25.9928806" id="Fill-22" fill="#FFFFFE"></path>
                <path d="M128.000244,32.1332484 C127.28465,32.1332484 127.19282,32.7576737 127.19282,33.5860884 C127.19282,34.4155412 127.28465,35.0493095 128.000244,35.0493095 C128.71535,35.0493095 128.807669,34.4155412 128.807669,33.5860884 C128.807669,32.7576737 128.71535,32.1332484 128.000244,32.1332484 Z M129.513982,35.7313501 C129.247771,36.0142361 128.816461,36.1896773 128.348516,36.1896773 C127.862498,36.1896773 127.504946,36.0526463 127.19282,35.6825588 L127.19282,37.9928806 L126,37.9928806 L126,31.051534 L127.156185,31.051534 L127.156185,31.5290663 C127.486384,31.1387356 127.843937,30.9928806 128.348516,30.9928806 C128.816461,30.9928806 129.247771,31.1683218 129.513982,31.4512078 C129.991208,31.9578072 130,32.8256702 130,33.5860884 C130,34.3465066 129.991208,35.2242316 129.513982,35.7313501 L129.513982,35.7313501 Z" id="Fill-23" fill="#FFFFFE"></path>
                <path d="M133.549318,32.3063045 C133.412652,32.1654735 133.231559,32.090064 132.995895,32.090064 C132.759749,32.090064 132.587348,32.1654735 132.451165,32.3063045 C132.206326,32.5595007 132.179283,32.9819937 132.179283,33.4878866 C132.179283,33.9947783 132.206326,34.4262606 132.451165,34.6794567 C132.587348,34.8202877 132.759749,34.8956972 132.995895,34.8956972 C133.231559,34.8956972 133.412652,34.8202877 133.549318,34.6794567 C133.793674,34.4262606 133.8212,33.9947783 133.8212,33.4878866 C133.8212,32.9819937 133.793674,32.5595007 133.549318,32.3063045 Z M134.464928,35.3926009 C134.175178,35.7112186 133.694193,35.9928806 132.995895,35.9928806 C132.297115,35.9928806 131.825305,35.7112186 131.535555,35.3926009 C131.109139,34.9326529 131,34.3793169 131,33.4878866 C131,32.6064443 131.109139,32.0531083 131.535555,31.5931603 C131.825305,31.2745426 132.297115,30.9928806 132.995895,30.9928806 C133.694193,30.9928806 134.175178,31.2745426 134.464928,31.5931603 C134.891344,32.0531083 135,32.6064443 135,33.4878866 C135,34.3793169 134.891344,34.9326529 134.464928,35.3926009 L134.464928,35.3926009 Z" id="Fill-24" fill="#FFFFFE"></path>
                <path d="M138.230828,35.9928806 C137.082837,35.9928806 136.595618,35.1972849 136.595618,34.4124176 L136.595618,31.6761104 L136,31.6761104 L136,30.626421 L136.595618,30.626421 L136.595618,28.9928806 L138.003652,28.9928806 L138.003652,30.626421 L139,30.626421 L139,31.6761104 L138.003652,31.6761104 L138.003652,34.327155 C138.003652,34.6461838 138.155295,34.8257434 138.490871,34.8257434 L139,34.8257434 L139,35.9928806 L138.230828,35.9928806" id="Fill-25" fill="#FFFFFE"></path>
                <path d="M144.458426,32.512557 C144.30421,32.2219058 143.985223,32.0061647 143.500293,32.0061647 C143.015949,32.0061647 142.696376,32.2219058 142.54216,32.512557 C142.453618,32.6908431 142.420781,32.821686 142.40964,33.0379266 L144.59036,33.0379266 C144.579219,32.821686 144.546382,32.6908431 144.458426,32.512557 Z M142.40964,33.8729246 C142.40964,34.5011707 142.861733,34.9606193 143.66565,34.9606193 C144.293069,34.9606193 144.602087,34.8107991 144.965052,34.5011707 L145.835229,35.2233041 C145.251202,35.7207072 144.690043,35.9928806 143.654509,35.9928806 C142.299988,35.9928806 141,35.4675111 141,33.4878866 C141,31.8933001 142.013838,30.9928806 143.500293,30.9928806 C145.096986,30.9928806 146,31.9871874 146,33.3290772 L146,33.8729246 L142.40964,33.8729246 L142.40964,33.8729246 Z" id="Fill-26" fill="#FFFFFE"></path>
                <path d="M149.799115,35.9928806 L149.799115,33.0047 C149.799115,32.3308946 149.383575,32.1025887 149.004426,32.1025887 C148.625768,32.1025887 148.201377,32.3308946 148.201377,33.0047 L148.201377,35.9928806 L147,35.9928806 L147,31.0499571 L148.173346,31.0499571 L148.173346,31.5050536 C148.487583,31.1636049 148.930661,30.9928806 149.37374,30.9928806 C149.854684,30.9928806 150.242193,31.154008 150.510204,31.4292883 C150.898205,31.8273083 151,32.2925068 151,32.8339757 L151,35.9928806 L149.799115,35.9928806" id="Fill-27" fill="#FFFFFE"></path>
                <path d="M154.230828,35.9928806 C153.082837,35.9928806 152.595618,35.1972849 152.595618,34.4124176 L152.595618,31.6761104 L152,31.6761104 L152,30.626421 L152.595618,30.626421 L152.595618,28.9928806 L154.003652,28.9928806 L154.003652,30.626421 L155,30.626421 L155,31.6761104 L154.003652,31.6761104 L154.003652,34.327155 C154.003652,34.6461838 154.155872,34.8257434 154.491447,34.8257434 L155,34.8257434 L155,35.9928806 L154.230828,35.9928806" id="Fill-28" fill="#FFFFFE"></path>
                <path d="M156.014812,35.9928806 L156.992794,35.9928806 L156.992794,30.8999369 L156.014812,30.8999369 L156.014812,35.9928806 Z M156,30.0296863 L157,30.0296863 L157,28.9928806 L156,28.9928806 L156,30.0296863 Z" id="Fill-29" fill="#FFFFFE"></path>
                <path d="M161.793478,33.8786893 L160.837945,33.8786893 C160.40168,33.8786893 160.160079,34.0853546 160.160079,34.4331328 C160.160079,34.7714034 160.382905,34.997084 160.856225,34.997084 C161.190217,34.997084 161.403656,34.9685612 161.617589,34.7618958 C161.747036,34.6397981 161.793478,34.4426404 161.793478,34.1418998 L161.793478,33.8786893 Z M161.82164,35.9463434 L161.82164,35.5235051 C161.496542,35.8522681 161.190217,35.9928806 160.633893,35.9928806 C160.085968,35.9928806 159.686759,35.8522681 159.399209,35.5610351 C159.139328,35.288317 159,34.8935011 159,34.4616556 C159,33.6810311 159.52915,33.0420199 160.652174,33.0420199 L161.793478,33.0420199 L161.793478,32.7978246 C161.793478,32.2613954 161.533597,32.0267077 160.893281,32.0267077 C160.429348,32.0267077 160.215909,32.1392977 159.965415,32.4310311 L159.194664,31.6699222 C159.667984,31.1435011 160.132411,30.9928806 160.939723,30.9928806 C162.29496,30.9928806 163,31.5753466 163,32.7222641 L163,35.9463434 L161.82164,35.9463434 L161.82164,35.9463434 Z" id="Fill-30" fill="#FFFFFE"></path>
                <path d="M165.345112,35.9928806 C164.397644,35.9928806 164,35.2554049 164,34.5278739 L164,28.9928806 L165.150059,28.9928806 L165.150059,34.4488399 C165.150059,34.7539842 165.265018,34.9110053 165.557126,34.9110053 L166,34.9110053 L166,35.9928806 L165.345112,35.9928806" id="Fill-31" fill="#FFFFFE"></path>
                <g id="Group-35" transform="translate(0.000000, 0.992881)">
                    <mask id="mask-4" fill="white">
                        <use xlink:href="#path-3"></use>
                    </mask>
                    <g id="Clip-33"></g>
                    <path d="M64.7995378,29.1179077 L58.7976891,22.8611077 C56.7968908,25.3235077 54.7496639,26.9645538 51.2740756,26.9645538 C46.6088235,26.9645538 43.3227731,23.0062154 43.3227731,17.9368615 L43.3227731,17.8404923 C43.3227731,12.9168 46.6088235,8.90972308 51.2740756,8.90972308 C54.4639916,8.90972308 56.6554202,10.4544 58.5584454,12.8680615 L64.7471008,6.41741538 C61.8166387,2.808 57.6173109,0.365538462 51.3702101,0.365538462 C41.2766387,0.365538462 33.8027311,8.08892308 33.8027311,17.9368615 L33.8027311,18.0332308 C33.8027311,28.1237538 41.4667227,35.5087385 50.9894958,35.5087385 C57.655,35.5087385 61.7527311,32.8663385 64.7995378,29.1179077" id="Fill-32" fill="#FFFFFE" mask="url(#mask-4)"></path>
                    <path d="M17.4735294,26.9645538 C12.8082773,26.9645538 9.52277311,23.0062154 9.52277311,17.9368615 L9.52277311,17.8404923 C9.52277311,12.9168 12.8082773,8.90972308 17.4735294,8.90972308 C20.6623529,8.90972308 22.8526891,10.4544 24.7568067,12.8680615 L30.9454622,6.41741538 C28.015,2.808 23.8162185,0.365538462 17.5685714,0.365538462 C7.47445378,0.365538462 0,8.08892308 0,17.9368615 L0,18.0332308 C0,28.1237538 7.66508403,35.5087385 17.1867647,35.5087385 C23.8533613,35.5087385 27.9510924,32.8663385 30.9978992,29.1179077 L24.9960504,22.8611077 C22.9957983,25.3235077 20.9496639,26.9645538 17.4735294,26.9645538" id="Fill-34" fill="#FFFFFE" mask="url(#mask-4)"></path>
                </g>
            </g>
        </g>
    </g>
</svg>