<?xml version="1.0" encoding="UTF-8"?>
<svg width="827px" height="69px" viewBox="0 0 827 69" version="1.1" xmlns="http://www.w3.org/2000/svg" xmlns:xlink="http://www.w3.org/1999/xlink">
    <!-- Generator: Sketch 53.2 (72643) - https://sketchapp.com -->
    <title>Group 53</title>
    <desc>Created with Sketch.</desc>
    <g id="Page-1" stroke="none" stroke-width="1" fill="none" fill-rule="evenodd">
        <g id="Landing-page" transform="translate(-308.000000, -3462.000000)" fill="#e6f500">
            <g id="Group-53" transform="translate(308.000000, 3462.000000)">
                <path d="M0.00256996712,36.7074575 C-0.0453327767,35.9120024 0.583935085,35.1176384 1.26219439,35.1176384 L7.80091892,35.1176384 C8.91465771,35.1176384 9.15634883,35.4013399 9.73771395,36.5939769 C10.4159732,38.0714065 12.4017597,39.4342644 15.7919675,39.4342644 C19.4238665,39.4342644 20.5865967,38.0146662 20.5865967,36.7074575 C20.5865967,34.833937 18.6977044,33.6980403 14.1447664,31.880169 C8.13950422,29.5516352 0.245349782,26.145036 0.245349782,17.0011216 C0.245349782,8.54027289 6.39649757,3.25797101 15.0179028,3.25797101 C23.8320076,3.25797101 29.9831554,8.65375345 30.4676263,16.6039397 C30.5155291,17.3993947 29.8862612,18.1948498 29.2080019,18.1948498 L22.4765777,18.1948498 C21.5555386,18.1948498 21.1189704,17.6830961 20.8282878,16.6606799 C20.2480114,14.7871595 18.4070219,13.0827688 15.2106024,13.0827688 C11.9172888,13.0827688 10.6097616,14.6158475 10.6097616,16.092186 C10.6097616,17.853317 12.3527683,18.7622526 16.8567149,20.5790328 C22.089001,22.7373457 31,26.3719972 31,36.0833144 C31,44.7143839 24.6071611,49.257971 15.9857559,49.257971 C7.41334217,49.257971 0.680829271,44.8289557 0.00256996712,36.7074575" id="Fill-1"></path>
                <path d="M45.56501,44.9350082 C45.56501,45.6520985 45.0366818,46.257971 44.4121956,46.257971 L37.1538948,46.257971 C36.5283282,46.257971 36,45.6520985 36,44.9350082 L36,4.58199309 C36,3.86490273 36.5283282,3.25797101 37.1538948,3.25797101 L44.5072731,3.25797101 C45.1814588,3.25797101 45.8534837,3.7547441 46.1905766,4.41675513 L56.0429799,26.9081829 C56.2352957,27.3488174 56.7160852,27.3488174 56.908401,26.9081829 L66.8105038,4.41675513 C67.1465163,3.7547441 67.8196216,3.25797101 68.4927269,3.25797101 L75.8461052,3.25797101 C76.4716718,3.25797101 77,3.86490273 77,4.58199309 L77,44.9350082 C77,45.6520985 76.4716718,46.257971 75.8461052,46.257971 L68.5888848,46.257971 C67.9633182,46.257971 67.43499,45.6520985 67.43499,44.9350082 L67.43499,25.3098234 C67.43499,25.0333676 67.0989775,24.923209 67.0028196,25.1996648 L60.1766892,40.9110403 C59.8406767,41.5719921 59.1675714,42.067706 58.4944661,42.067706 L54.5055339,42.067706 C53.8324286,42.067706 53.1593233,41.5719921 52.8233108,40.9110403 L45.9982608,25.1996648 C45.9021029,24.923209 45.56501,25.0333676 45.56501,25.3098234 L45.56501,44.9350082 Z" id="Fill-4"></path>
                <path d="M101.060326,29.9958023 C101.527709,29.9958023 101.808139,29.4439499 101.668449,28.9482361 L98.3505557,18.4185533 C98.2570791,18.0329981 97.7896962,18.0329981 97.6962196,18.4185533 L94.3321129,28.9482361 C94.1913728,29.4439499 94.4728529,29.9958023 94.9391855,29.9958023 L101.060326,29.9958023 Z M92.9772275,4.47077523 C93.2103938,3.7547441 93.8647299,3.25797101 94.519066,3.25797101 L101.527709,3.25797101 C102.182045,3.25797101 102.836381,3.7547441 103.069548,4.47077523 L116.947145,45.0451668 C117.134098,45.5970192 116.807455,46.257971 116.245545,46.257971 L108.303186,46.257971 C107.64885,46.257971 107.040727,45.7622572 106.807561,45.0451668 L105.499939,41.0211989 C105.311936,40.4142672 104.798339,39.9736327 104.23748,39.9736327 L91.7620319,39.9736327 C91.2011724,39.9736327 90.6875763,40.4142672 90.5006232,41.0211989 L89.191951,45.0451668 C88.9587847,45.7622572 88.3506617,46.257971 87.6963256,46.257971 L79.7539668,46.257971 C79.1931073,46.257971 78.8664644,45.5970192 79.0523673,45.0451668 L92.9772275,4.47077523 Z" id="Fill-6"></path>
                <path d="M118.213879,46.257971 C117.556314,46.257971 117,45.6520985 117,44.9350082 L117,4.58199309 C117,3.86490273 117.556314,3.25797101 118.213879,3.25797101 L125.856655,3.25797101 C126.514221,3.25797101 127.071672,3.86490273 127.071672,4.58199309 L127.071672,34.5165433 C127.071672,35.1224158 127.527873,35.6181297 128.083049,35.6181297 L144.784983,35.6181297 C145.443686,35.6181297 146,36.2250614 146,36.9410925 L146,44.9350082 C146,45.6520985 145.443686,46.257971 144.784983,46.257971 L118.213879,46.257971 Z" id="Fill-8"></path>
                <path d="M150.213879,46.257971 C149.556314,46.257971 149,45.6520985 149,44.9350082 L149,4.58199309 C149,3.86490273 149.556314,3.25797101 150.213879,3.25797101 L157.856655,3.25797101 C158.514221,3.25797101 159.071672,3.86490273 159.071672,4.58199309 L159.071672,34.5165433 C159.071672,35.1224158 159.527873,35.6181297 160.083049,35.6181297 L176.784983,35.6181297 C177.443686,35.6181297 178,36.2250614 178,36.9410925 L178,44.9350082 C178,45.6520985 177.443686,46.257971 176.784983,46.257971 L150.213879,46.257971 Z" id="Fill-10"></path>
                <path d="M212.118711,28.7268596 L203.065008,28.7268596 C202.511023,28.7268596 202.05879,29.2236327 202.05879,29.8305644 L202.05879,35.1764359 C202.05879,35.7833676 202.511023,36.2801407 203.065008,36.2801407 L212.118711,36.2801407 C214.83437,36.2801407 215.840588,34.6817812 215.840588,32.4203515 C215.840588,30.2150604 214.83437,28.7268596 212.118711,28.7268596 L212.118711,28.7268596 Z M210.911249,13.2908807 L203.065008,13.2908807 C202.511023,13.2908807 202.05879,13.7876537 202.05879,14.3935262 L202.05879,19.0244258 C202.05879,19.6313576 202.511023,20.1270714 203.065008,20.1270714 L210.358395,20.1270714 C213.074053,20.1270714 214.080271,18.7490292 214.080271,16.708976 C214.080271,14.6699821 213.023177,13.2908807 210.911249,13.2908807 L210.911249,13.2908807 Z M193.206331,46.257971 C192.552855,46.257971 192,45.6520985 192,44.9350082 L192,4.58199309 C192,3.86384351 192.552855,3.25797101 193.206331,3.25797101 L211.51498,3.25797101 C219.963821,3.25797101 224.239683,8.27442584 224.239683,15.1106166 C224.239683,19.0244258 222.731487,21.7805102 220.316563,23.6002461 C219.963821,23.8756427 219.963821,24.3724158 220.366309,24.5927331 C223.838327,26.3563305 226,29.4990292 226,34.1299288 C226,41.240457 221.171283,46.257971 213.225551,46.257971 L193.206331,46.257971 Z" id="Fill-12"></path>
                <path d="M254.563313,4.64763194 C254.563313,3.89499158 255.085619,3.25797101 255.701727,3.25797101 L262.862652,3.25797101 C263.47876,3.25797101 264,3.89499158 264,4.64763194 L264,28.659861 C264,40.2896553 258.025457,49.257971 246.976017,49.257971 C235.879675,49.257971 230,40.2896553 230,28.659861 L230,4.64763194 C230,3.89499158 230.52124,3.25797101 231.137348,3.25797101 L238.345174,3.25797101 C238.962348,3.25797101 239.484654,3.89499158 239.484654,4.64763194 L239.484654,27.9650305 C239.484654,34.5031072 242.04502,38.0906558 246.976017,38.0906558 C251.956046,38.0906558 254.563313,34.5031072 254.563313,27.9650305 L254.563313,4.64763194 Z" id="Fill-14"></path>
                <path d="M266.00257,36.7074575 C265.954667,35.9120024 266.583935,35.1176384 267.261106,35.1176384 L273.800919,35.1176384 C274.914658,35.1176384 275.156349,35.4013399 275.737714,36.5939769 C276.415973,38.0714065 278.40176,39.4342644 281.791968,39.4342644 C285.424955,39.4342644 286.586597,38.0146662 286.586597,36.7074575 C286.586597,34.833937 284.697704,33.6980403 280.145855,31.880169 C274.139504,29.5516352 266.24535,26.145036 266.24535,17.0011216 C266.24535,8.54027289 272.396498,3.25797101 281.016814,3.25797101 C289.832008,3.25797101 295.983155,8.65375345 296.467626,16.6039397 C296.515529,17.3993947 295.886261,18.1948498 295.208002,18.1948498 L288.475489,18.1948498 C287.555539,18.1948498 287.120059,17.6830961 286.829377,16.6606799 C286.248011,14.7871595 284.407022,13.0827688 281.210602,13.0827688 C277.917289,13.0827688 276.609762,14.6158475 276.609762,16.092186 C276.609762,17.853317 278.352768,18.7622526 282.856715,20.5790328 C288.089001,22.7373457 297,26.3719972 297,36.0833144 C297,44.7143839 290.607161,49.257971 281.985756,49.257971 C273.413342,49.257971 266.680829,44.8289557 266.00257,36.7074575" id="Fill-16"></path>
                <path d="M302,4.58199309 C302,3.86490273 302.549623,3.25797101 303.199281,3.25797101 L310.800719,3.25797101 C311.450377,3.25797101 312,3.86490273 312,4.58199309 L312,44.9350082 C312,45.6520985 311.450377,46.257971 310.800719,46.257971 L303.199281,46.257971 C302.549623,46.257971 302,45.6520985 302,44.9350082 L302,4.58199309 Z" id="Fill-18"></path>
                <path d="M325.483588,44.9350082 C325.483588,45.6520985 324.962348,46.257971 324.346239,46.257971 L317.137348,46.257971 C316.52124,46.257971 316,45.6520985 316,44.9350082 L316,4.58199309 C316,3.86490273 316.52124,3.25797101 317.137348,3.25797101 L322.923222,3.25797101 C323.634198,3.25797101 324.346239,3.64458546 324.772612,4.30553728 L339.994106,26.412469 C340.183842,26.7429449 340.563313,26.5777069 340.563313,26.1910925 L340.563313,4.58199309 C340.563313,3.86490273 341.085619,3.25797101 341.701727,3.25797101 L348.861586,3.25797101 C349.47876,3.25797101 350,3.86490273 350,4.58199309 L350,44.9350082 C350,45.6520985 349.47876,46.257971 348.861586,46.257971 L343.123679,46.257971 C342.412703,46.257971 341.701727,45.8724158 341.274289,45.2104048 L326.052795,23.1596116 C325.863059,22.8280764 325.483588,22.9943736 325.483588,23.3799288 L325.483588,44.9350082 Z" id="Fill-20"></path>
                <path d="M356.161175,46.257971 C355.531072,46.257971 355,45.6520985 355,44.9350082 L355,4.58199309 C355,3.86490273 355.531072,3.25797101 356.161175,3.25797101 L382.837736,3.25797101 C383.466752,3.25797101 384,3.86490273 384,4.58199309 L384,12.6299288 C384,13.3470192 383.466752,13.9528917 382.837736,13.9528917 L365.650818,13.9528917 C365.11757,13.9528917 364.682265,14.4486056 364.682265,15.0555373 L364.682265,19.0254851 C364.682265,19.6313576 365.11757,20.1281306 365.650818,20.1281306 L379.399917,20.1281306 C380.028933,20.1281306 380.562181,20.7340031 380.562181,21.4510935 L380.562181,28.7819389 C380.562181,29.4990292 380.028933,30.1049017 379.399917,30.1049017 L365.650818,30.1049017 C365.11757,30.1049017 364.682265,30.6016748 364.682265,31.2086065 L364.682265,34.5165433 C364.682265,35.1224158 365.11757,35.6181297 365.650818,35.6181297 L382.837736,35.6181297 C383.466752,35.6181297 384,36.2250614 384,36.9410925 L384,44.9350082 C384,45.6520985 383.466752,46.257971 382.837736,46.257971 L356.161175,46.257971 Z" id="Fill-22"></path>
                <path d="M386.00257,36.7074575 C385.954667,35.9120024 386.583935,35.1176384 387.262194,35.1176384 L393.800919,35.1176384 C394.914658,35.1176384 395.156349,35.4013399 395.737714,36.5939769 C396.415973,38.0714065 398.40176,39.4342644 401.791968,39.4342644 C405.424955,39.4342644 406.586597,38.0146662 406.586597,36.7074575 C406.586597,34.833937 404.697704,33.6980403 400.145855,31.880169 C394.139504,29.5516352 386.24535,26.145036 386.24535,17.0011216 C386.24535,8.54027289 392.396498,3.25797101 401.016814,3.25797101 C409.832008,3.25797101 415.984244,8.65375345 416.467626,16.6039397 C416.515529,17.3993947 415.886261,18.1948498 415.209091,18.1948498 L408.475489,18.1948498 C407.555539,18.1948498 407.120059,17.6830961 406.829377,16.6606799 C406.248011,14.7871595 404.407022,13.0827688 401.211691,13.0827688 C397.917289,13.0827688 396.609762,14.6158475 396.609762,16.092186 C396.609762,17.853317 398.353857,18.7622526 402.857804,20.5790328 C408.089001,22.7373457 417,26.3719972 417,36.0833144 C417,44.7143839 410.607161,49.257971 401.985756,49.257971 C393.413342,49.257971 386.680829,44.8289557 386.00257,36.7074575" id="Fill-24"></path>
                <path d="M420.00257,36.7074575 C419.954667,35.9120024 420.583935,35.1176384 421.261106,35.1176384 L427.800919,35.1176384 C428.914658,35.1176384 429.156349,35.4013399 429.737714,36.5939769 C430.415973,38.0714065 432.40176,39.4342644 435.791968,39.4342644 C439.424955,39.4342644 440.586597,38.0146662 440.586597,36.7074575 C440.586597,34.833937 438.698793,33.6980403 434.145855,31.880169 C428.140593,29.5516352 420.24535,26.145036 420.24535,17.0011216 C420.24535,8.54027289 426.396498,3.25797101 435.016814,3.25797101 C443.832008,3.25797101 449.983155,8.65375345 450.467626,16.6039397 C450.515529,17.3993947 449.886261,18.1948498 449.208002,18.1948498 L442.476578,18.1948498 C441.555539,18.1948498 441.120059,17.6830961 440.829377,16.6606799 C440.248011,14.7871595 438.407022,13.0827688 435.210602,13.0827688 C431.917289,13.0827688 430.609762,14.6158475 430.609762,16.092186 C430.609762,17.853317 432.353857,18.7622526 436.856715,20.5790328 C442.089001,22.7373457 451,26.3719972 451,36.0833144 C451,44.7143839 444.607161,49.257971 435.986845,49.257971 C427.413342,49.257971 420.680829,44.8289557 420.00257,36.7074575" id="Fill-26"></path>
                <path d="M470,4.58199309 C470,3.86490273 470.549623,3.25797101 471.199281,3.25797101 L478.800719,3.25797101 C479.450377,3.25797101 480,3.86490273 480,4.58199309 L480,44.9360674 C480,45.6520985 479.450377,46.257971 478.800719,46.257971 L471.199281,46.257971 C470.549623,46.257971 470,45.6520985 470,44.9360674 L470,4.58199309 Z" id="Fill-28"></path>
                <path d="M482.00257,33.7074575 C481.954669,32.9120024 482.583915,32.1165473 483.26215,32.1165473 L489.800645,32.1165473 C490.915433,32.1165473 491.156027,32.4013399 491.737372,33.5939769 C492.415607,35.0703153 494.402413,36.4331732 497.792502,36.4331732 C501.424273,36.4331732 502.585874,35.0135751 502.585874,33.7074575 C502.585874,31.833937 500.698136,30.6969491 496.14427,28.880169 C490.140307,26.5516352 482.245341,23.145036 482.245341,14.0011216 C482.245341,5.53918173 488.396273,0.257971014 497.017375,0.257971014 C505.832259,0.257971014 511.982102,5.65266229 512.466556,13.6039397 C512.514457,14.3993947 511.885212,15.1937587 511.206976,15.1937587 L504.475788,15.1937587 C503.55587,15.1937587 503.118229,14.6830961 502.828645,13.6606799 C502.248389,11.7871595 500.406375,10.0827688 497.211157,10.0827688 C493.91687,10.0827688 492.609389,11.6158475 492.609389,13.092186 C492.609389,14.853317 494.353423,15.7622526 498.857212,17.5790328 C504.088225,19.7373457 513,23.3719972 513,33.0822232 C513,41.7143839 506.606297,46.257971 497.986283,46.257971 C489.413082,46.257971 482.680805,41.8289557 482.00257,33.7074575" id="Fill-30"></path>
                <path d="M552.06031,29.9958023 C552.527696,29.9958023 552.808127,29.4439499 552.667386,28.9482361 L549.350521,18.4185533 C549.257044,18.0329981 548.789658,18.0329981 548.696181,18.4185533 L545.332053,28.9482361 C545.191312,29.4439499 545.472793,29.9958023 545.939129,29.9958023 L552.06031,29.9958023 Z M543.977158,4.47077523 C544.210326,3.7547441 544.864667,3.25797101 545.519007,3.25797101 L552.527696,3.25797101 C553.182036,3.25797101 553.835326,3.7547441 554.069544,4.47077523 L567.947231,45.0451668 C568.134185,45.59596 567.80649,46.257971 567.246677,46.257971 L559.302166,46.257971 C558.647826,46.257971 558.040749,45.7611979 557.808632,45.0451668 L556.499951,41.0211989 C556.312997,40.4142672 555.799397,39.9736327 555.237484,39.9736327 L542.761955,39.9736327 C542.201092,39.9736327 541.687492,40.4142672 541.500538,41.0211989 L540.191857,45.0451668 C539.95869,45.7611979 539.350563,46.257971 538.696222,46.257971 L530.753812,46.257971 C530.192949,46.257971 529.865254,45.59596 530.053258,45.0451668 L543.977158,4.47077523 Z" id="Fill-33"></path>
                <path d="M602.118042,28.727487 L593.064641,28.727487 C592.511804,28.727487 592.059586,29.2242723 592.059586,29.8301597 L592.059586,35.1772222 C592.059586,35.7841688 592.511804,36.2798949 593.064641,36.2798949 L602.118042,36.2798949 C604.83361,36.2798949 605.839795,34.6814961 605.839795,32.4210699 C605.839795,30.2157244 604.83361,28.727487 602.118042,28.727487 L602.118042,28.727487 Z M600.911751,13.2911278 L593.064641,13.2911278 C592.511804,13.2911278 592.059586,13.7879131 592.059586,14.3938006 L592.059586,19.0248142 C592.059586,19.6317609 592.511804,20.127487 593.064641,20.127487 L600.357784,20.127487 C603.074483,20.127487 604.079537,18.7494108 604.079537,16.7093074 C604.079537,14.6702632 603.023608,13.2911278 600.911751,13.2911278 L600.911751,13.2911278 Z M583.207422,46.257971 C582.552836,46.257971 582,45.6520836 582,44.9360348 L582,4.58096646 C582,3.86385844 582.552836,3.25797101 583.207422,3.25797101 L601.515462,3.25797101 C609.964022,3.25797101 614.239742,8.27454941 614.239742,15.1109086 C614.239742,19.0248142 612.730465,21.7809665 610.316752,23.6007472 C609.964022,23.8761506 609.964022,24.3729359 610.366496,24.5932586 C613.837268,26.3568995 616,29.4996757 616,34.1296301 C616,41.2413926 611.172574,46.257971 603.224845,46.257971 L583.207422,46.257971 Z" id="Fill-35"></path>
                <path d="M621,4.58199309 C621,3.86490273 621.549623,3.25797101 622.199281,3.25797101 L629.800719,3.25797101 C630.450377,3.25797101 631,3.86490273 631,4.58199309 L631,44.9360674 C631,45.6520985 630.450377,46.257971 629.800719,46.257971 L622.199281,46.257971 C621.549623,46.257971 621,45.6520985 621,44.9360674 L621,4.58199309 Z" id="Fill-37"></path>
                <path d="M652.500439,28.9936495 C651.891413,28.9936495 651.376163,28.3684153 651.376163,27.6307917 L651.376163,20.9299828 C651.376163,20.191268 651.891413,19.5671249 652.500439,19.5671249 L667.875724,19.5671249 C668.484751,19.5671249 669,20.191268 669,20.9299828 L669,44.0429178 C669,44.7816326 668.484751,45.4057756 667.875724,45.4057756 L662.766434,45.4057756 C662.157408,45.4057756 661.641105,44.7816326 661.641105,44.0429178 L661.641105,42.3963585 C661.641105,42.0559168 661.265995,41.8846048 661.078441,42.1683062 C659.15653,44.8383728 655.781596,46.257971 652.406662,46.257971 C641.811918,46.257971 633,35.9225107 633,23.2585166 C633,10.5934313 641.811918,0.257971014 652.406662,0.257971014 C658.266171,0.257971014 663.609378,3.49544047 667.17292,8.4362095 C667.546977,9.00361231 667.453199,9.85580767 666.985366,10.2529896 L661.21858,14.9667975 C660.656969,15.4207198 660.000527,15.3639795 659.485278,14.7398364 C657.703506,12.5815234 655.171516,11.2186656 652.406662,11.2186656 C646.874846,11.2186656 642.46836,16.5566166 642.46836,23.2585166 C642.46836,29.9582343 646.874846,35.2972765 652.406662,35.2972765 C655.500263,35.2972765 658.218755,33.4804963 659.953111,30.6969491 C660.094304,30.469988 660.235497,30.0160658 660.235497,29.7323644 L660.235497,29.5621435 C660.235497,29.277351 660.000527,28.9936495 659.76661,28.9936495 L652.500439,28.9936495 Z" id="Fill-39"></path>
                <path d="M705.08893,13.9528917 L698.834317,13.9528917 C698.291882,13.9528917 697.849077,14.4486056 697.849077,15.0555373 L697.849077,34.5154841 C697.849077,35.1213566 698.291882,35.6181297 698.834317,35.6181297 L705.08893,35.6181297 C710.949446,35.6181297 714.052399,31.2075473 714.052399,24.757971 C714.052399,18.3083947 710.949446,13.9528917 705.08893,13.9528917 L705.08893,13.9528917 Z M689.182288,46.257971 C688.541328,46.257971 688,45.6510393 688,44.9350082 L688,4.58093387 C688,3.86490273 688.541328,3.25797101 689.182288,3.25797101 L705.828413,3.25797101 C717.843911,3.25797101 724,13.0705634 724,24.757971 C724,36.500458 717.843911,46.257971 705.828413,46.257971 L689.182288,46.257971 Z" id="Fill-42"></path>
                <path d="M730.161175,46.257971 C729.53216,46.257971 729,45.6520985 729,44.9350082 L729,4.58199309 C729,3.86490273 729.53216,3.25797101 730.161175,3.25797101 L756.837736,3.25797101 C757.466752,3.25797101 758,3.86490273 758,4.58199309 L758,12.6299288 C758,13.3470192 757.466752,13.9528917 756.837736,13.9528917 L739.651906,13.9528917 C739.11757,13.9528917 738.682265,14.4496648 738.682265,15.0555373 L738.682265,19.0254851 C738.682265,19.6313576 739.11757,20.1281306 739.651906,20.1281306 L753.399917,20.1281306 C754.030021,20.1281306 754.562181,20.7340031 754.562181,21.4510935 L754.562181,28.7829981 C754.562181,29.5000885 754.030021,30.105961 753.399917,30.105961 L739.651906,30.105961 C739.11757,30.105961 738.682265,30.6016748 738.682265,31.2086065 L738.682265,34.5165433 C738.682265,35.1224158 739.11757,35.6191889 739.651906,35.6191889 L756.837736,35.6191889 C757.466752,35.6191889 758,36.2240022 758,36.9410925 L758,44.9350082 C758,45.6520985 757.466752,46.257971 756.837736,46.257971 L730.161175,46.257971 Z" id="Fill-44"></path>
                <path d="M780.060867,29.9958023 C780.527202,29.9958023 780.808684,29.4439499 780.667943,28.9482361 L777.351079,18.4185533 C777.256551,18.0329981 776.790216,18.0329981 776.695688,18.4185533 L773.332611,28.9482361 C773.19187,29.4439499 773.473352,29.9958023 773.939687,29.9958023 L780.060867,29.9958023 Z M771.977717,4.47077523 C772.209834,3.7547441 772.864175,3.25797101 773.518515,3.25797101 L780.527202,3.25797101 C781.181542,3.25797101 781.835883,3.7547441 782.06905,4.47077523 L795.946734,45.0451668 C796.134739,45.59596 795.807044,46.257971 795.247231,46.257971 L787.303772,46.257971 C786.648381,46.257971 786.041305,45.7611979 785.808137,45.0451668 L784.500507,41.0211989 C784.312502,40.4142672 783.798903,39.9736327 783.23699,39.9736327 L770.762514,39.9736327 C770.201651,39.9736327 769.688051,40.4142672 769.500047,41.0211989 L768.192417,45.0451668 C767.959249,45.7611979 767.351122,46.257971 766.696782,46.257971 L758.753323,46.257971 C758.19351,46.257971 757.865815,45.59596 758.052769,45.0451668 L771.977717,4.47077523 Z" id="Fill-46"></path>
                <path d="M799.213879,46.257971 C798.556314,46.257971 798,45.6520985 798,44.9350082 L798,4.58199309 C798,3.86490273 798.556314,3.25797101 799.213879,3.25797101 L806.856655,3.25797101 C807.514221,3.25797101 808.070535,3.86490273 808.070535,4.58199309 L808.070535,34.5165433 C808.070535,35.1224158 808.527873,35.6191889 809.083049,35.6191889 L825.784983,35.6191889 C826.443686,35.6191889 827,36.2240022 827,36.9410925 L827,44.9350082 C827,45.6520985 826.443686,46.257971 825.784983,46.257971 L799.213879,46.257971 Z" id="Fill-48"></path>
                <path d="M585,58.5657102 C585,58.3981295 589.726769,58.257971 595.316677,58.257971 L660.683323,58.257971 C666.273231,58.257971 671,58.3981295 671,58.5657102 L671,67.9512475 C671,68.1178126 666.273231,68.257971 660.683323,68.257971 L595.316677,68.257971 C589.726769,68.257971 585,68.1178126 585,67.9512475 L585,58.5657102 Z" id="Fill-51"></path>
            </g>
        </g>
    </g>
</svg>