<?xml version="1.0" encoding="UTF-8"?>
<svg width="64px" height="76px" viewBox="0 0 64 76" version="1.1" xmlns="http://www.w3.org/2000/svg" xmlns:xlink="http://www.w3.org/1999/xlink">
    <!-- Generator: Sketch 54.1 (76490) - https://sketchapp.com -->
    <title>Group 13</title>
    <desc>Created with Sketch.</desc>
    <g id="Page-1" stroke="none" stroke-width="1" fill="none" fill-rule="evenodd">
        <g id="Landing-page" transform="translate(-912.000000, -3796.000000)">
            <g id="Group-13" transform="translate(912.000000, 3796.000000)">
                <circle id="Oval-Copy-6" fill="#F0DD00" cx="32" cy="43.3548387" r="32"></circle>
                <path d="M24.9981164,11.9507381 C21.330869,17.629198 18.8643973,21.0959283 17.5987014,22.3509289 C16.3330054,23.6059294 12.9001645,25.9886615 7.30017858,29.4991252 C7.65302725,24.5656069 9.44700504,20.4949628 12.6821119,17.2871932 C15.9172189,14.0794235 20.0225537,12.3006051 24.9981164,11.9507381 Z" id="Path-2-Copy-13" fill="#D8D8D8" transform="translate(16.149147, 20.724932) rotate(19.000000) translate(-16.149147, -20.724932) "></path>
                <path d="M56.2014636,11.434609 C52.5342162,17.113069 50.0677445,20.5797992 48.8020486,21.8347998 C47.5363527,23.0898004 44.1035117,25.4725325 38.5035258,28.9829961 C38.8563745,24.0494778 40.6503523,19.9788338 43.8854592,16.7710641 C47.1205661,13.5632944 51.2259009,11.7844761 56.2014636,11.434609 Z" id="Path-2-Copy-15" fill="#D8D8D8" transform="translate(47.352495, 20.208803) scale(-1, 1) rotate(19.000000) translate(-47.352495, -20.208803) "></path>
                <circle id="Oval-Copy-8" fill="#1D1D1B" cx="40.7741935" cy="38.7096774" r="2.58064516"></circle>
                <circle id="Oval-Copy-10" fill="#1D1D1B" cx="23.2258065" cy="38.7096774" r="2.58064516"></circle>
                <rect id="Rectangle-Copy-50" stroke="#1D1D1B" stroke-width="2" x="35.0645161" y="32.483871" width="16.5806452" height="12.4516129" rx="4"></rect>
                <rect id="Rectangle-Copy-54" stroke="#1D1D1B" stroke-width="2" x="12.3548387" y="32.483871" width="16.5806452" height="12.4516129" rx="4"></rect>
                <rect id="Rectangle-Copy-51" fill="#1D1D1B" x="2.58064516" y="34.5806452" width="10.3225806" height="2" rx="1"></rect>
                <rect id="Rectangle-Copy-52" fill="#1D1D1B" x="51.0967742" y="34.5806452" width="10.3225806" height="2" rx="1"></rect>
                <rect id="Rectangle-Copy-53" fill="#1D1D1B" x="24.7741935" y="55.2258065" width="14" height="2" rx="1"></rect>
                <path d="M35.0967742,36.9032258 C35.0967742,35.1929246 33.7103012,33.8064516 32,33.8064516 C30.2896988,33.8064516 28.9032258,35.1929246 28.9032258,36.9032258 C29.316129,34.8387097 30.3483871,33.8064516 32,33.8064516 C33.6516129,33.8064516 34.683871,34.8387097 35.0967742,36.9032258 Z" id="Oval-Copy-9" stroke="#1D1D1B" stroke-width="2" fill="#F0DD00" stroke-linejoin="round"></path>
                <path d="M8.58986175,19.6129032 C15.9155641,18.2353787 23.7407462,17.5472067 32.0654081,17.5483871 C40.3900699,17.5495675 48.0487587,18.2377395 55.0414747,19.6129032 C48.0487587,13.7634409 40.3068232,10.8387097 31.8156682,10.8387097 C23.3245132,10.8387097 15.5825777,13.7634409 8.58986175,19.6129032 Z" id="Path-2" fill="#8B8B8B"></path>
                <path d="M23.1063573,17.5483871 C20.9399841,13.3479213 21.817077,10.245771 25.737636,8.2419361 C29.658195,6.23810118 31.5812869,3.49078915 31.5069117,0 C33.0908041,4.14656081 33.0623059,7.89282054 31.4214171,11.2387792 C29.7805282,14.5847378 27.0088416,16.6879405 23.1063573,17.5483871 Z" id="Path-3" fill="#8B8B8B"></path>
                <path d="M29.80972,16 C28.3722908,11.5549128 29.762326,8.71019973 33.9798256,7.46586076 C38.1973252,6.22152178 40.5629313,3.90494454 41.076644,0.516129032 C41.9466351,4.80606881 41.288121,8.42373467 39.1011017,11.3691266 C36.9140824,14.3145186 33.8169552,15.858143 29.80972,16 Z" id="Path-3-Copy" fill="#8B8B8B"></path>
                <path d="M34.7537396,17.392734 C34.0879412,12.7629674 35.9779246,10.2065088 40.4236898,9.72335828 C44.869455,9.24020772 47.6454647,7.37543238 48.7517189,4.12903226 C48.8756391,8.50619039 47.5842763,11.9524492 44.8776307,14.4678086 C42.170985,16.983168 38.7963547,17.9581431 34.7537396,17.392734 Z" id="Path-3-Copy-2" fill="#8B8B8B"></path>
            </g>
        </g>
    </g>
</svg>