<?xml version="1.0" encoding="UTF-8"?>
<svg width="610px" height="387px" viewBox="0 0 610 387" version="1.1" xmlns="http://www.w3.org/2000/svg" xmlns:xlink="http://www.w3.org/1999/xlink">
    <!-- Generator: Sketch 53.2 (72643) - https://sketchapp.com -->
    <title>Group 49</title>
    <desc>Created with Sketch.</desc>
    <g id="Page-1" stroke="none" stroke-width="1" fill="none" fill-rule="evenodd">
        <g id="Group-49" fill="#1D1D1B">
            <path d="M136.004851,63.6605082 C135.914094,62.1564573 137.111053,60.6541213 138.40048,60.6541213 L150.846107,60.6541213 C152.967754,60.6541213 153.426674,61.1909149 154.532876,63.4461338 C155.824015,66.2381463 159.603253,68.8157843 166.055526,68.8157843 C172.968432,68.8157843 175.180836,66.1301016 175.180836,63.6605082 C175.180836,60.1173278 171.586536,57.9684386 162.921859,54.5298729 C151.491677,50.1257648 136.467195,43.6825272 136.467195,26.3902289 C136.467195,10.3858921 148.171359,0.397759104 164.581161,0.397759104 C181.357415,0.397759104 193.065003,10.6002665 193.986267,25.6390609 C194.078736,27.1431119 192.880065,28.6454478 191.590638,28.6454478 L178.776848,28.6454478 C177.025076,28.6454478 176.194568,27.6799054 175.64318,25.7453906 C174.536978,22.2004952 171.033435,18.9780189 164.949325,18.9780189 C158.681989,18.9780189 156.193891,21.8780761 156.193891,24.6718035 C156.193891,28.0023245 159.512497,29.7190349 168.084705,33.1558856 C178.040521,37.2392896 195,44.112991 195,62.4788764 C195,78.8039173 182.833492,87.3977591 166.42369,87.3977591 C150.108068,87.3977591 137.295991,79.0200067 136.004851,63.6605082" id="Fill-1"></path>
            <path d="M220.429548,82.8133289 C220.429548,84.2130137 219.411037,85.3977591 218.206716,85.3977591 L204.222832,85.3977591 C203.016791,85.3977591 202,84.2130137 202,82.8133289 L202,3.98390882 C202,2.58250455 203.016791,1.3977591 204.222832,1.3977591 L218.390805,1.3977591 C219.689751,1.3977591 220.985256,2.36756525 221.633869,3.66064011 L240.619125,47.5993926 C240.990744,48.4591499 241.916351,48.4591499 242.286249,47.5993926 L261.36441,3.66064011 C262.014744,2.36756525 263.310249,1.3977591 264.605754,1.3977591 L278.777168,1.3977591 C279.979768,1.3977591 281,2.58250455 281,3.98390882 L281,82.8133289 C281,84.2130137 279.979768,85.3977591 278.777168,85.3977591 L264.791563,85.3977591 C263.587242,85.3977591 262.568731,84.2130137 262.568731,82.8133289 L262.568731,44.4750349 C262.568731,43.9368269 261.920118,43.7218876 261.736029,44.2600956 L248.584847,74.9517089 C247.936234,76.2447837 246.639009,77.2128704 245.341783,77.2128704 L237.654776,77.2128704 C236.359271,77.2128704 235.063766,76.2447837 234.413433,74.9517089 L221.26225,44.2600956 C221.076441,43.7218876 220.429548,43.9368269 220.429548,44.4750349 L220.429548,82.8133289 Z" id="Fill-3"></path>
            <path d="M328.539705,53.6290795 C329.461378,53.6290795 330.014725,52.5509218 329.738908,51.5828154 L323.191261,31.0135626 C323.006241,30.2586803 322.082855,30.2586803 321.899548,31.0135626 L315.259391,51.5828154 C314.983574,52.5509218 315.536921,53.6290795 316.458594,53.6290795 L328.539705,53.6290795 Z M312.585169,3.76557896 C313.046005,2.36586555 314.337718,1.3977591 315.629431,1.3977591 L329.461378,1.3977591 C330.751378,1.3977591 332.044804,2.36586555 332.503927,3.76557896 L359.895432,83.0282197 C360.265471,84.1046578 359.617902,85.3977591 358.512922,85.3977591 L342.834202,85.3977591 C341.54249,85.3977591 340.345,84.4279331 339.88245,83.0282197 L337.299025,75.1664387 C336.930698,73.981669 335.918229,73.1201747 334.809823,73.1201747 L310.188476,73.1201747 C309.081784,73.1201747 308.065887,73.981669 307.697561,75.1664387 L305.114136,83.0282197 C304.655012,84.4279331 303.454096,85.3977591 302.164097,85.3977591 L286.485377,85.3977591 C285.38211,85.3977591 284.734541,84.1046578 285.104581,83.0282197 L312.585169,3.76557896 Z" id="Fill-5"></path>
            <path d="M366.218213,85.3977591 C365.017182,85.3977591 364,84.2130137 364,82.8133289 L364,3.98390882 C364,2.58250455 365.017182,1.3977591 366.218213,1.3977591 L380.185567,1.3977591 C381.388316,1.3977591 382.405498,2.58250455 382.405498,3.98390882 L382.405498,62.4594364 C382.405498,63.6441819 383.238832,64.613988 384.256014,64.613988 L414.778351,64.613988 C415.9811,64.613988 417,65.7987335 417,67.1984183 L417,82.8133289 C417,84.2130137 415.9811,85.3977591 414.778351,85.3977591 L366.218213,85.3977591 Z" id="Fill-7"></path>
            <path d="M422.218213,85.3977591 C421.017182,85.3977591 420,84.2130137 420,82.8133289 L420,3.98390882 C420,2.58250455 421.017182,1.3977591 422.218213,1.3977591 L436.185567,1.3977591 C437.386598,1.3977591 438.405498,2.58250455 438.405498,3.98390882 L438.405498,62.4594364 C438.405498,63.6441819 439.238832,64.613988 440.256014,64.613988 L470.778351,64.613988 C471.9811,64.613988 473,65.7987335 473,67.1984183 L473,82.8133289 C473,84.2130137 471.9811,85.3977591 470.778351,85.3977591 L422.218213,85.3977591 Z" id="Fill-9"></path>
            <path d="M36.6864712,180.151909 L20.1765369,180.151909 C19.1678804,180.151909 18.3415318,181.121716 18.3415318,182.306461 L18.3415318,192.752511 C18.3415318,193.937257 19.1678804,194.907063 20.1765369,194.907063 L36.6864712,194.907063 C41.6377477,194.907063 43.4727528,191.782705 43.4727528,187.366992 C43.4727528,183.059608 41.6377477,180.151909 36.6864712,180.151909 L36.6864712,180.151909 Z M34.4851466,149.998504 L20.1765369,149.998504 C19.1678804,149.998504 18.3415318,150.96831 18.3415318,152.153056 L18.3415318,161.199421 C18.3415318,162.384167 19.1678804,163.352253 20.1765369,163.352253 L33.4764901,163.352253 C38.4277666,163.352253 40.2644755,160.661213 40.2644755,156.675379 C40.2644755,152.691264 38.3374646,149.998504 34.4851466,149.998504 L34.4851466,149.998504 Z M2.19962076,214.397759 C1.00695265,214.397759 0,213.213014 0,211.813329 L0,132.983909 C0,131.582505 1.00695265,130.397759 2.19962076,130.397759 L35.5858089,130.397759 C50.9933771,130.397759 58.790019,140.198991 58.790019,153.552741 C58.790019,161.199421 56.0383632,166.583221 51.6357141,170.137457 C50.9933771,170.675665 50.9933771,171.645472 51.7277199,172.07535 C58.0556762,175.521257 62,181.659924 62,190.706289 C62,204.598246 53.1947017,214.397759 38.7037841,214.397759 L2.19962076,214.397759 Z" id="Fill-11"></path>
            <path d="M115.681011,132.965343 C115.681011,131.573999 116.693318,130.397759 117.890302,130.397759 L131.788999,130.397759 C132.985983,130.397759 134,131.573999 134,132.965343 L134,177.334694 C134,198.826259 122.401223,215.397759 100.952976,215.397759 C79.4140995,215.397759 68,198.826259 68,177.334694 L68,132.965343 C68,131.573999 69.0123067,130.397759 70.2075809,130.397759 L84.2003265,130.397759 C85.3973107,130.397759 86.4096173,131.573999 86.4096173,132.965343 L86.4096173,176.052609 C86.4096173,188.134252 91.3805218,194.763194 100.952976,194.763194 C110.617768,194.763194 115.681011,188.134252 115.681011,176.052609 L115.681011,132.965343 Z" id="Fill-13"></path>
            <path d="M140.005023,191.660508 C139.912555,190.156457 141.111222,188.654121 142.400645,188.654121 L154.846236,188.654121 C156.966165,188.654121 157.426795,189.190915 158.532994,191.446134 C159.82413,194.238146 163.603356,196.815784 170.055611,196.815784 C176.968496,196.815784 179.180893,194.130102 179.180893,191.660508 C179.180893,188.117328 175.586604,185.968439 166.921952,182.529873 C155.491804,178.125765 140.467366,171.682527 140.467366,154.390229 C140.467366,138.385892 152.171496,128.397759 168.58125,128.397759 C185.357454,128.397759 197.065009,138.600267 197.98627,153.639061 C198.078739,155.143112 196.880071,156.645448 195.590648,156.645448 L182.776895,156.645448 C181.025129,156.645448 180.194623,155.679905 179.643237,153.745391 C178.537038,150.200495 175.033505,146.978019 168.949412,146.978019 C162.682095,146.978019 160.194004,149.878076 160.194004,152.671804 C160.194004,156.002325 163.5126,157.719035 172.083071,161.155886 C182.040571,165.23929 199,172.112991 199,190.478876 C199,206.803917 186.833528,215.397759 170.423773,215.397759 C154.1082,215.397759 141.296159,207.020007 140.005023,191.660508" id="Fill-15"></path>
            <path d="M206,132.983909 C206,131.582505 206.989691,130.397759 208.159933,130.397759 L221.838395,130.397759 C223.008638,130.397759 224,131.582505 224,132.983909 L224,211.813329 C224,213.213014 223.008638,214.397759 221.838395,214.397759 L208.159933,214.397759 C206.989691,214.397759 206,213.213014 206,211.813329 L206,132.983909 Z" id="Fill-17"></path>
            <path d="M253.40914,211.813329 C253.40914,213.213014 252.39686,214.397759 251.199907,214.397759 L237.207524,214.397759 C236.01228,214.397759 235,213.213014 235,211.813329 L235,132.983909 C235,131.582505 236.01228,130.397759 237.207524,130.397759 L248.438365,130.397759 C249.819991,130.397759 251.199907,131.152626 252.027514,132.443981 L281.576869,175.629586 C281.944505,176.276124 282.679776,175.952855 282.679776,175.197988 L282.679776,132.983909 C282.679776,131.582505 283.692057,130.397759 284.89072,130.397759 L298.789056,130.397759 C299.98601,130.397759 301,131.582505 301,132.983909 L301,211.813329 C301,213.213014 299.98601,214.397759 298.789056,214.397759 L287.650552,214.397759 C286.270636,214.397759 284.89072,213.644612 284.059692,212.351537 L254.513757,169.275981 C254.146122,168.629443 253.40914,168.952712 253.40914,169.705859 L253.40914,211.813329 Z" id="Fill-19"></path>
            <path d="M313.203821,214.397759 C312.0098,214.397759 311,213.213014 311,211.813329 L311,132.983909 C311,131.582505 312.0098,130.397759 313.203821,130.397759 L363.797885,130.397759 C364.991905,130.397759 366,131.582505 366,132.983909 L366,148.707149 C366,150.106834 364.991905,151.291579 363.797885,151.291579 L331.201123,151.291579 C330.189617,151.291579 329.365742,152.259666 329.365742,153.444411 L329.365742,161.199421 C329.365742,162.382447 330.189617,163.352253 331.201123,163.352253 L357.278532,163.352253 C358.472553,163.352253 359.482353,164.536999 359.482353,165.936684 L359.482353,180.260239 C359.482353,181.659924 358.472553,182.844669 357.278532,182.844669 L331.201123,182.844669 C330.189617,182.844669 329.365742,183.812756 329.365742,184.997501 L329.365742,191.459436 C329.365742,192.644182 330.189617,193.613988 331.201123,193.613988 L363.797885,193.613988 C364.991905,193.613988 366,194.798733 366,196.198418 L366,211.813329 C366,213.213014 364.991905,214.397759 363.797885,214.397759 L313.203821,214.397759 Z" id="Fill-21"></path>
            <path d="M370.004851,191.660508 C369.914094,190.156457 371.111053,188.654121 372.40048,188.654121 L384.847819,188.654121 C386.967754,188.654121 387.428386,189.190915 388.532876,191.446134 C389.825728,194.238146 393.603253,196.815784 400.057239,196.815784 C406.971857,196.815784 409.182548,194.130102 409.182548,191.660508 C409.182548,188.117328 405.586536,185.968439 396.923571,182.529873 C385.493389,178.125765 370.467195,171.682527 370.467195,154.390229 C370.467195,138.385892 382.173071,128.397759 398.581161,128.397759 C415.357415,128.397759 427.065003,138.600267 427.986267,153.639061 C428.078736,155.143112 426.881778,156.645448 425.590638,156.645448 L412.77856,156.645448 C411.025076,156.645448 410.197993,155.679905 409.64318,153.745391 C408.536978,150.200495 405.033435,146.978019 398.949325,146.978019 C392.681989,146.978019 390.193891,149.878076 390.193891,152.671804 C390.193891,156.002325 393.512497,157.719035 402.084705,161.155886 C412.040521,165.23929 429,172.112991 429,190.478876 C429,206.803917 416.833492,215.397759 400.427114,215.397759 C384.108068,215.397759 371.297703,207.020007 370.004851,191.660508" id="Fill-23"></path>
            <path d="M434.005023,191.660508 C433.912555,190.156457 435.111222,188.654121 436.400645,188.654121 L448.847949,188.654121 C450.966165,188.654121 451.428508,189.190915 452.532994,191.446134 C453.825842,194.238146 457.603356,196.815784 464.057323,196.815784 C470.970209,196.815784 473.182606,194.130102 473.182606,191.660508 C473.182606,188.117328 469.586604,185.968439 460.923665,182.529873 C449.493516,178.125765 434.467366,171.682527 434.467366,154.390229 C434.467366,138.385892 446.173208,128.397759 462.58125,128.397759 C479.357454,128.397759 491.065009,138.600267 491.98627,153.639061 C492.078739,155.143112 490.881784,156.645448 489.590648,156.645448 L476.778608,156.645448 C475.025129,156.645448 474.198048,155.679905 473.643237,153.745391 C472.537038,150.200495 469.033505,146.978019 462.949412,146.978019 C456.682095,146.978019 454.194004,149.878076 454.194004,152.671804 C454.194004,156.002325 457.5126,157.719035 466.083071,161.155886 C476.040571,165.23929 493,172.112991 493,190.478876 C493,206.803917 480.833528,215.397759 464.427198,215.397759 C448.1082,215.397759 435.297872,207.020007 434.005023,191.660508" id="Fill-25"></path>
            <path d="M526,132.983909 C526,131.582505 526.989783,130.397759 528.158462,130.397759 L541.839866,130.397759 C543.010217,130.397759 544,131.582505 544,132.983909 L544,211.813329 C544,213.213014 543.010217,214.397759 541.839866,214.397759 L528.158462,214.397759 C526.989783,214.397759 526,213.213014 526,211.813329 L526,132.983909 Z" id="Fill-27"></path>
            <path d="M551.005023,191.660508 C550.912555,190.156457 552.111222,188.654121 553.400645,188.654121 L565.847949,188.654121 C567.966165,188.654121 568.426795,189.190915 569.532994,191.446134 C570.825842,194.238146 574.603356,196.815784 581.057323,196.815784 C587.970209,196.815784 590.182606,194.130102 590.182606,191.660508 C590.182606,188.117328 586.586604,185.968439 577.923665,182.529873 C566.491804,178.125765 551.467366,171.682527 551.467366,154.390229 C551.467366,138.385892 563.173208,128.397759 579.58125,128.397759 C596.357454,128.397759 608.065009,138.600267 608.98627,153.639061 C609.078739,155.143112 607.881784,156.645448 606.590648,156.645448 L593.776895,156.645448 C592.025129,156.645448 591.198048,155.679905 590.643237,153.745391 C589.537038,150.200495 586.033505,146.978019 579.949412,146.978019 C573.682095,146.978019 571.194004,149.878076 571.194004,152.671804 C571.194004,156.002325 574.5126,157.719035 583.083071,161.155886 C593.040571,165.23929 610,172.112991 610,190.478876 C610,206.803917 597.833528,215.397759 581.427198,215.397759 C565.1082,215.397759 552.297872,207.020007 551.005023,191.660508" id="Fill-29"></path>
            <path d="M62.5401452,310.629079 C63.4618245,310.629079 64.0151747,309.550922 63.7393562,308.582815 L57.1916641,288.013563 C57.0066429,287.25868 56.0849636,287.25868 55.8999425,288.013563 L49.261453,308.582815 C48.9839213,309.550922 49.5372715,310.629079 50.4589508,310.629079 L62.5401452,310.629079 Z M46.5854993,260.765579 C47.0463389,259.365866 48.3380605,258.397759 49.6280689,258.397759 L63.4618245,258.397759 C64.7535461,258.397759 66.0452676,259.365866 66.5043941,260.765579 L93.8960867,340.02822 C94.2644158,341.104658 93.6185551,342.397759 92.5118546,342.397759 L76.8347404,342.397759 C75.5430188,342.397759 74.345521,341.427933 73.8829682,340.02822 L71.299525,332.166439 C70.9311959,330.981669 69.9187192,330.120175 68.8103056,330.120175 L44.1887904,330.120175 C43.08209,330.120175 42.0661869,330.981669 41.6978578,332.166439 L39.1144147,340.02822 C38.6552882,341.427933 37.4560772,342.397759 36.1643556,342.397759 L20.4872414,342.397759 C19.3805409,342.397759 18.7346801,341.104658 19.1047224,340.02822 L46.5854993,260.765579 Z" id="Fill-31"></path>
            <path d="M161.687167,308.151909 L145.177686,308.151909 C144.169057,308.151909 143.342732,309.121716 143.342732,310.306461 L143.342732,320.752511 C143.342732,321.937257 144.169057,322.905343 145.177686,322.905343 L161.687167,322.905343 C166.638307,322.905343 168.473262,319.782705 168.473262,315.368712 C168.473262,311.059608 166.638307,308.151909 161.687167,308.151909 L161.687167,308.151909 Z M159.485903,277.998504 L145.177686,277.998504 C144.169057,277.998504 143.342732,278.96831 143.342732,280.153056 L143.342732,289.199421 C143.342732,290.384167 144.169057,291.352253 145.177686,291.352253 L158.477274,291.352253 C163.426711,291.352253 165.263369,288.661213 165.263369,284.675379 C165.263369,280.691264 163.336411,277.998504 159.485903,277.998504 L159.485903,277.998504 Z M127.201264,342.397759 C126.008629,342.397759 125,341.214733 125,339.813329 L125,260.983909 C125,259.582505 126.008629,258.397759 127.201264,258.397759 L160.586535,258.397759 C175.99368,258.397759 183.790107,268.198991 183.790107,281.552741 C183.790107,289.199421 181.036823,294.583221 176.634295,298.137457 C175.99368,298.675665 175.99368,299.645472 176.728002,300.07535 C183.055785,303.521257 187,309.659924 187,318.706289 C187,332.598246 178.194944,342.397759 163.702721,342.397759 L127.201264,342.397759 Z" id="Fill-33"></path>
            <path d="M195,260.983909 C195,259.582505 195.989691,258.397759 197.159933,258.397759 L210.840067,258.397759 C212.008638,258.397759 213,259.582505 213,260.983909 L213,339.811609 C213,341.213014 212.008638,342.397759 210.840067,342.397759 L197.159933,342.397759 C195.989691,342.397759 195,341.213014 195,339.811609 L195,260.983909 Z" id="Fill-35"></path>
            <path d="M257.459049,311.744891 C256.256882,311.744891 255.240192,310.563282 255.240192,309.167304 L255.240192,296.493738 C255.240192,295.096044 256.256882,293.916151 257.459049,293.916151 L287.781143,293.916151 C288.98331,293.916151 290,295.096044 290,296.493738 L290,340.206393 C290,341.604087 288.98331,342.785695 287.781143,342.785695 L277.705263,342.785695 C276.503096,342.785695 275.486406,341.604087 275.486406,340.206393 L275.486406,337.092023 C275.486406,336.448912 274.746215,336.126499 274.376977,336.663282 C270.586716,341.712129 263.930144,344.397759 257.273572,344.397759 C236.381622,344.397759 219,324.848912 219,300.896044 C219,276.944891 236.381622,257.397759 257.273572,257.397759 C268.829834,257.397759 279.369406,263.520172 286.396933,272.864997 C287.13369,273.938563 286.951647,275.550627 286.027696,276.30178 L274.655193,285.216151 C273.544047,286.075346 272.250859,285.967304 271.234169,284.785695 C267.722123,280.704087 262.727976,278.126499 257.273572,278.126499 C246.364762,278.126499 237.67481,288.222478 237.67481,300.896044 C237.67481,313.56961 246.364762,323.665589 257.273572,323.665589 C263.375429,323.665589 268.737095,320.228806 272.159837,314.967304 C272.436336,314.536848 272.714552,313.677653 272.714552,313.14087 L272.714552,312.818457 C272.714552,312.281674 272.250859,311.744891 271.788883,311.744891 L257.459049,311.744891 Z" id="Fill-37"></path>
            <path d="M356.805037,279.290287 L345.164189,279.290287 C344.156235,279.290287 343.332164,280.258394 343.332164,281.443163 L343.332164,319.458967 C343.332164,320.643737 344.156235,321.613563 345.164189,321.613563 L356.805037,321.613563 C367.71035,321.613563 373.485655,312.998619 373.485655,300.397759 C373.485655,287.798619 367.71035,279.290287 356.805037,279.290287 L356.805037,279.290287 Z M327.199792,342.397759 C326.006251,342.397759 325,341.214709 325,339.813276 L325,260.983962 C325,259.582529 326.006251,258.397759 327.199792,258.397759 L358.179055,258.397759 C380.543036,258.397759 392,277.567299 392,300.397759 C392,323.336551 380.543036,342.397759 358.179055,342.397759 L327.199792,342.397759 Z" id="Fill-39"></path>
            <path d="M401.203753,342.397759 C400.009769,342.397759 399,341.214733 399,339.813329 L399,260.983909 C399,259.582505 400.009769,258.397759 401.203753,258.397759 L451.796247,258.397759 C452.988525,258.397759 454,259.582505 454,260.983909 L454,276.707149 C454,278.106834 452.988525,279.291579 451.796247,279.291579 L419.202202,279.291579 C418.190727,279.291579 417.363467,280.259666 417.363467,281.444411 L417.363467,289.199421 C417.363467,290.382447 418.190727,291.352253 419.202202,291.352253 L445.277097,291.352253 C446.471081,291.352253 447.48085,292.536999 447.48085,293.936684 L447.48085,308.260239 C447.48085,309.659924 446.471081,310.844669 445.277097,310.844669 L419.202202,310.844669 C418.190727,310.844669 417.363467,311.812756 417.363467,312.997501 L417.363467,319.459436 C417.363467,320.644182 418.190727,321.613988 419.202202,321.613988 L451.796247,321.613988 C452.988525,321.613988 454,322.798733 454,324.198418 L454,339.813329 C454,341.214733 452.988525,342.397759 451.796247,342.397759 L401.203753,342.397759 Z" id="Fill-41"></path>
            <path d="M500.53988,310.629079 C501.461567,310.629079 502.014922,309.550922 501.737388,308.582815 L495.191354,288.013563 C495.006331,287.25868 494.082931,287.25868 493.899621,288.013563 L487.259363,308.582815 C486.983542,309.550922 487.536897,310.629079 488.458584,310.629079 L500.53988,310.629079 Z M484.5851,260.765579 C485.045943,259.365866 486.337676,258.397759 487.627695,258.397759 L501.461567,258.397759 C502.751586,258.397759 504.045032,259.365866 504.504162,260.765579 L531.896086,340.02822 C532.264418,341.104658 531.618552,342.397759 530.511842,342.397759 L514.834596,342.397759 C513.542863,342.397759 512.345355,341.427933 511.882799,340.02822 L509.301047,332.166439 C508.931001,330.981669 507.918516,330.120175 506.810093,330.120175 L482.188371,330.120175 C481.081661,330.120175 480.067462,330.981669 479.697417,332.166439 L477.115665,340.02822 C476.654822,341.427933 475.453887,342.397759 474.163868,342.397759 L458.484909,342.397759 C457.379912,342.397759 456.735759,341.104658 457.104091,340.02822 L484.5851,260.765579 Z" id="Fill-43"></path>
            <path d="M538.218285,342.397759 C537.017215,342.397759 536,341.214733 536,339.813329 L536,260.983909 C536,259.582505 537.017215,258.397759 538.218285,258.397759 L552.186092,258.397759 C553.387162,258.397759 554.406095,259.582505 554.406095,260.983909 L554.406095,319.459436 C554.406095,320.644182 555.239455,321.613988 556.254952,321.613988 L586.779997,321.613988 C587.982785,321.613988 589,322.798733 589,324.198418 L589,339.813329 C589,341.214733 587.982785,342.397759 586.779997,342.397759 L538.218285,342.397759 Z" id="Fill-45"></path>
            <path d="M123,367.013585 C123,366.681208 132.233413,366.397759 143.154471,366.397759 L270.847235,366.397759 C281.766587,366.397759 291,366.681208 291,367.013585 L291,385.78362 C291,386.115998 281.766587,386.397759 270.847235,386.397759 L143.154471,386.397759 C132.233413,386.397759 123,386.115998 123,385.78362 L123,367.013585 Z" id="Fill-47"></path>
        </g>
    </g>
</svg>