<?xml version="1.0" encoding="UTF-8"?>
<svg width="139px" height="112px" viewBox="0 0 139 112" version="1.1" xmlns="http://www.w3.org/2000/svg" xmlns:xlink="http://www.w3.org/1999/xlink">
    <!-- Generator: Sketch 53.2 (72643) - https://sketchapp.com -->
    <title>i-logo</title>
    <desc>Created with Sketch.</desc>
    <g id="Page-1" stroke="none" stroke-width="1" fill="none" fill-rule="evenodd">
        <g id="Landing-page" transform="translate(-651.000000, -81.000000)" fill="#1D1D1B" fill-rule="nonzero">
            <g id="i-logo" transform="translate(651.000000, 81.000000)">
                <path d="M99.1505728,58.2559729 C82.9091653,57.357557 68.1972177,59.9030687 54.7234043,59.6035967 C42.8518822,59.3041247 37.6808511,58.3308409 32,55.0366492 C32.0728314,55.1115172 32.0728314,55.2612532 32.1456628,55.3361212 C32.1456628,55.3361212 36.8797054,70.7589275 54.9418985,70.0102476 C73.0040917,69.3364356 94.1252046,63.9459402 103.010638,63.0475243 C111.896072,62.1491084 116.41162,63.3469963 121,68.1385478 C121,68.0636798 115.464812,59.1543888 99.1505728,58.2559729 Z" id="Path"></path>
                <path d="M44.6287186,9.167084 C56.4476665,1.05114197 72.3521766,0.109112983 76,0.0366492147 C40.4701999,0.471431823 31.5695108,9.67433037 25.7329933,22.9351999 C20.553084,34.8192579 23.1795169,49.3120115 29.891512,53.6598376 C30.6210767,54.167084 31.3506414,54.6018666 32.080206,55.0366492 C23.4713428,34.8917217 31.2776849,18.2975188 44.6287186,9.167084 Z" id="Path"></path>
                <path d="M41.0540216,32.831862 C41.0540216,32.831862 42.7880205,23.9089896 51.8915145,19.4475535 C60.9950085,14.9861173 71.3267518,17.7653726 74,19.813245 C74,19.813245 71.3267518,11.0366492 58.6830101,11.0366492 C46.4005181,11.0366492 35.5630252,20.6909045 32.5285272,34.6603194 C29.6385291,48.0446279 39.3922727,63.3305322 42.6435206,66.0366492 C42.6435206,66.0366492 35.6352752,59.3079258 33.2510267,46.4355854 C30.7222784,32.831862 39.5367726,19.0087237 46.7617679,18.0579258 C46.7617679,18.0579258 45.7502685,21.1297343 44.0885196,24.4209577 C42.4990207,27.7853194 41.0540216,31.4422343 41.0540216,32.831862 Z" id="Path"></path>
                <path d="M52.0818549,31.0366492 C52.0818549,31.0366492 45.773394,38.9095589 48.354128,49.1369837 C51.2932973,60.5416659 54.5909018,62.160395 69,75.0366492 C69,75.0366492 55.3794594,68.2674184 48.5691892,60.9831375 C41.7589189,53.6988566 40.683613,45.5316325 43.3360341,39.5717663 C46.2752034,32.8761141 50.8631749,31.6988566 52.0818549,31.0366492 Z" id="Path"></path>
                <path d="M9.09685864,93.1895904 C8.58743455,93.4013551 7.49581152,93.683708 6.04031414,93.683708 C2.32879581,93.683708 0,91.4248845 0,88.0366492 C0,84.366061 2.69267016,82.1072374 6.33141361,82.1072374 C7.71413613,82.1072374 8.73298429,82.3895904 9.16963351,82.6013551 L8.73298429,84.2248845 C8.15078534,84.0131198 7.35026178,83.8013551 6.40418848,83.8013551 C4.0026178,83.8013551 2.25602094,85.2131198 2.25602094,87.8954727 C2.25602094,90.366061 3.78429319,91.9190022 6.40418848,91.9190022 C7.27748691,91.9190022 8.15078534,91.7778257 8.73298429,91.4954727 L9.09685864,93.1895904 Z" id="Path"></path>
                <path d="M13.6089005,90.2954727 L12.5900524,93.4719433 L10.3340314,93.4719433 L14.1183246,82.2484139 L16.8837696,82.2484139 L20.7408377,93.4719433 L18.4120419,93.4719433 L17.3204188,90.2954727 L13.6089005,90.2954727 L13.6089005,90.2954727 Z M16.9565445,88.7425316 L16.0104712,85.9895904 C15.7921466,85.283708 15.573822,84.5778257 15.4282723,83.8719433 L15.4282723,83.8719433 C15.2827225,84.5072374 15.0643979,85.283708 14.8460733,85.9895904 L13.9,88.7425316 L16.9565445,88.7425316 Z" id="Shape"></path>
                <polygon id="Path" points="24.6706806 82.2484139 24.6706806 93.4719433 22.4874346 93.4719433 22.4874346 82.2484139 24.6706806 82.2484139"></polygon>
                <path d="M27.2905759,82.4601786 C28.0910995,82.3190022 29.3282723,82.1778257 30.565445,82.1778257 C32.239267,82.1778257 33.4036649,82.4601786 34.2041885,83.0954727 C34.8591623,83.5895904 35.2230366,84.366061 35.2230366,85.3542963 C35.2230366,86.8366492 34.2041885,87.7542963 33.0397906,88.1778257 L33.0397906,88.2484139 C33.913089,88.5307669 34.4225131,89.3072374 34.7136126,90.4366492 C35.0774869,91.8484139 35.4413613,93.1190022 35.6596859,93.5425316 L33.4764398,93.5425316 C33.3308901,93.1895904 33.0397906,92.2719433 32.6759162,90.9307669 C32.3120419,89.4484139 31.8026178,89.0248845 30.565445,88.9542963 L29.473822,88.9542963 L29.473822,93.5425316 L27.3633508,93.5425316 L27.3633508,82.4601786 L27.2905759,82.4601786 Z M29.473822,87.4013551 L30.7837696,87.4013551 C32.239267,87.4013551 33.1125654,86.6954727 33.1125654,85.566061 C33.1125654,84.366061 32.239267,83.8013551 30.7837696,83.8013551 C30.1287958,83.8013551 29.6921466,83.8719433 29.473822,83.8719433 L29.473822,87.4013551 Z" id="Shape"></path>
                <path d="M37.4062827,93.4719433 L37.4062827,82.2484139 L39.8806283,82.2484139 L42.9371728,87.0484139 C43.7376963,88.3190022 44.3926702,89.5895904 44.9748691,90.7895904 L44.9748691,90.7895904 C44.8293194,89.3072374 44.7565445,87.8248845 44.7565445,86.1307669 L44.7565445,82.2484139 L46.721466,82.2484139 L46.721466,93.4719433 L44.465445,93.4719433 L41.4089005,88.5307669 C40.6811518,87.3307669 39.8806283,85.9190022 39.2984293,84.6484139 L39.2256545,84.6484139 C39.2984293,86.0601786 39.3712042,87.5425316 39.3712042,89.4484139 L39.3712042,93.4719433 L37.4062827,93.4719433 Z" id="Path"></path>
                <path d="M49.4141361,91.283708 C50.0691099,91.6366492 51.160733,91.9895904 52.252356,91.9895904 C53.6350785,91.9895904 54.3628272,91.3542963 54.3628272,90.4366492 C54.3628272,89.5895904 53.7806283,89.0954727 52.252356,88.6013551 C50.2874346,87.966061 49.0502618,86.9778257 49.0502618,85.3542963 C49.0502618,83.5190022 50.6513089,82.1072374 53.1984293,82.1072374 C54.508377,82.1072374 55.3816754,82.3895904 56.0366492,82.6719433 L55.5272251,84.2954727 C55.0905759,84.083708 54.2900524,83.7307669 53.1984293,83.7307669 C51.8157068,83.7307669 51.2335079,84.4366492 51.2335079,85.0719433 C51.2335079,85.9190022 51.8884817,86.3425316 53.4895288,86.9072374 C55.5272251,87.6131198 56.5460733,88.6013551 56.5460733,90.2248845 C56.5460733,92.0601786 55.0905759,93.6131198 52.1068063,93.6131198 C50.8696335,93.6131198 49.5596859,93.2601786 48.904712,92.9072374 L49.4141361,91.283708 Z" id="Path"></path>
                <path d="M71.3193717,93.1895904 C70.8099476,93.4013551 69.7183246,93.683708 68.2628272,93.683708 C64.5513089,93.683708 62.2225131,91.4248845 62.2225131,88.0366492 C62.2225131,84.366061 64.9151832,82.1072374 68.5539267,82.1072374 C69.9366492,82.1072374 70.9554974,82.3895904 71.3921466,82.6013551 L70.9554974,84.2248845 C70.3732984,84.0131198 69.5727749,83.8013551 68.6267016,83.8013551 C66.2251309,83.8013551 64.478534,85.2131198 64.478534,87.8954727 C64.478534,90.366061 66.0068063,91.9190022 68.6267016,91.9190022 C69.5,91.9190022 70.3732984,91.7778257 70.9554974,91.4954727 L71.3193717,93.1895904 Z" id="Path"></path>
                <polygon id="Path" points="75.3219895 82.2484139 75.3219895 86.766061 80.3434555 86.766061 80.3434555 82.2484139 82.5267016 82.2484139 82.5267016 93.4719433 80.3434555 93.4719433 80.3434555 88.5307669 75.3219895 88.5307669 75.3219895 93.4719433 73.1387435 93.4719433 73.1387435 82.2484139 75.3219895 82.2484139"></polygon>
                <path d="M87.4026178,90.2954727 L86.3837696,93.4719433 L84.1277487,93.4719433 L87.9120419,82.2484139 L90.6774869,82.2484139 L94.534555,93.4719433 L92.2057592,93.4719433 L91.1141361,90.2954727 L87.4026178,90.2954727 L87.4026178,90.2954727 Z M90.7502618,88.7425316 L89.8041885,85.9895904 C89.5858639,85.283708 89.3675393,84.5778257 89.2219895,83.8719433 L89.2219895,83.8719433 C89.0764398,84.5072374 88.8581152,85.283708 88.6397906,85.9895904 L87.6937173,88.7425316 L90.7502618,88.7425316 Z" id="Shape"></path>
                <path d="M106.251309,88.883708 C106.178534,87.4719433 106.105759,85.7072374 106.105759,84.1542963 L106.032984,84.1542963 C105.66911,85.4954727 105.159686,87.0484139 104.650262,88.4601786 L102.903665,93.3307669 L101.229843,93.3307669 L99.6287958,88.5307669 C99.1921466,87.1190022 98.7554974,85.566061 98.4643979,84.1542963 L98.4643979,84.1542963 C98.391623,85.6366492 98.3188482,87.4013551 98.2460733,88.9542963 L97.9549738,93.4719433 L95.9172775,93.4719433 L96.717801,82.2484139 L99.5560209,82.2484139 L101.084293,86.766061 C101.520942,88.1072374 101.884817,89.3778257 102.175916,90.6484139 L102.248691,90.6484139 C102.539791,89.4484139 102.97644,88.0366492 103.413089,86.766061 L105.014136,82.2484139 L107.779581,82.2484139 L108.434555,93.4719433 L106.324084,93.4719433 L106.251309,88.883708 Z" id="Path"></path>
                <path d="M110.763351,82.4601786 C111.418325,82.3190022 112.655497,82.1778257 113.89267,82.1778257 C115.493717,82.1778257 116.439791,82.3895904 117.240314,82.883708 C117.968063,83.3072374 118.477487,84.0131198 118.477487,85.0013551 C118.477487,86.0601786 117.822513,86.9778257 116.512565,87.4013551 L116.512565,87.4719433 C117.749738,87.7542963 118.914136,88.6719433 118.914136,90.2248845 C118.914136,91.2131198 118.477487,91.9895904 117.822513,92.5542963 C116.949215,93.2601786 115.566492,93.6131198 113.456021,93.6131198 C112.291623,93.6131198 111.34555,93.5425316 110.836126,93.4719433 L110.836126,82.4601786 L110.763351,82.4601786 Z M112.873822,86.9072374 L113.965445,86.9072374 C115.493717,86.9072374 116.294241,86.2719433 116.294241,85.283708 C116.294241,84.2248845 115.420942,83.7307669 114.110995,83.7307669 C113.456021,83.7307669 113.092147,83.7307669 112.873822,83.8013551 L112.873822,86.9072374 Z M112.873822,91.9895904 C113.164921,92.0601786 113.528796,92.0601786 114.03822,92.0601786 C115.420942,92.0601786 116.658115,91.566061 116.658115,90.2248845 C116.658115,88.883708 115.420942,88.3895904 113.965445,88.3895904 L112.873822,88.3895904 L112.873822,91.9895904 Z" id="Shape"></path>
                <polygon id="Path" points="127.719895 88.5307669 123.280628 88.5307669 123.280628 91.8484139 128.229319 91.8484139 128.229319 93.5425316 121.097382 93.5425316 121.097382 82.3190022 127.93822 82.3190022 127.93822 84.0131198 123.207853 84.0131198 123.207853 86.9072374 127.64712 86.9072374 127.64712 88.5307669"></polygon>
                <path d="M130.267016,82.4601786 C131.067539,82.3190022 132.304712,82.1778257 133.541885,82.1778257 C135.215707,82.1778257 136.380105,82.4601786 137.180628,83.0954727 C137.835602,83.5895904 138.199476,84.366061 138.199476,85.3542963 C138.199476,86.8366492 137.180628,87.7542963 136.01623,88.1778257 L136.01623,88.2484139 C136.889529,88.5307669 137.398953,89.3072374 137.690052,90.4366492 C138.053927,91.8484139 138.417801,93.1190022 138.636126,93.5425316 L136.45288,93.5425316 C136.30733,93.1895904 136.01623,92.2719433 135.652356,90.9307669 C135.288482,89.4484139 134.779058,89.0248845 133.541885,88.9542963 L132.450262,88.9542963 L132.450262,93.5425316 L130.267016,93.5425316 L130.267016,82.4601786 Z M132.450262,87.4013551 L133.760209,87.4013551 C135.215707,87.4013551 136.089005,86.6954727 136.089005,85.566061 C136.089005,84.366061 135.215707,83.8013551 133.760209,83.8013551 C133.105236,83.8013551 132.668586,83.8719433 132.450262,83.8719433 L132.450262,87.4013551 Z" id="Shape"></path>
                <path d="M23.2816456,105.824885 C23.2816456,109.566061 20.8797468,111.754296 17.6772152,111.754296 C14.3291139,111.754296 12.2183544,109.354296 12.2183544,106.036649 C12.2183544,102.577826 14.5474684,100.177826 17.8227848,100.177826 C21.2436709,100.107237 23.2816456,102.577826 23.2816456,105.824885 Z M14.4746835,105.966061 C14.4746835,108.295473 15.7120253,110.060179 17.75,110.060179 C19.8607595,110.060179 21.0253165,108.224885 21.0253165,105.895473 C21.0253165,103.777826 19.9335443,101.801355 17.75,101.801355 C15.6392405,101.801355 14.4746835,103.636649 14.4746835,105.966061 Z" id="Shape"></path>
                <polygon id="Path" points="25.3196203 100.319002 32.1613924 100.319002 32.1613924 102.01312 27.5031646 102.01312 27.5031646 105.119002 31.8702532 105.119002 31.8702532 106.81312 27.5031646 106.81312 27.5031646 111.61312 25.3196203 111.61312"></polygon>
                <path d="M47.0094937,111.18959 C46.5,111.401355 45.4082278,111.683708 43.9525316,111.683708 C40.2405063,111.683708 37.9113924,109.424885 37.9113924,106.036649 C37.9113924,102.366061 40.6044304,100.107237 44.2436709,100.107237 C45.6265823,100.107237 46.6455696,100.38959 47.0822785,100.601355 L46.6455696,102.224885 C46.0632911,102.01312 45.2626582,101.801355 44.3164557,101.801355 C41.914557,101.801355 40.1677215,103.21312 40.1677215,105.895473 C40.1677215,108.366061 41.6962025,109.919002 44.3164557,109.919002 C45.1898734,109.919002 46.0632911,109.777826 46.6455696,109.495473 L47.0094937,111.18959 Z" id="Path"></path>
                <path d="M59.0189873,105.824885 C59.0189873,109.566061 56.6170886,111.754296 53.414557,111.754296 C50.0664557,111.754296 47.9556962,109.354296 47.9556962,106.036649 C47.9556962,102.577826 50.2848101,100.177826 53.5601266,100.177826 C56.9810127,100.107237 59.0189873,102.577826 59.0189873,105.824885 Z M50.2120253,105.966061 C50.2120253,108.295473 51.4493671,110.060179 53.4873418,110.060179 C55.5981013,110.060179 56.7626582,108.224885 56.7626582,105.895473 C56.7626582,103.777826 55.6708861,101.801355 53.4873418,101.801355 C51.3765823,101.801355 50.2120253,103.636649 50.2120253,105.966061 Z" id="Shape"></path>
                <path d="M71.028481,106.954296 C70.9556962,105.542532 70.8829114,103.777826 70.8829114,102.224885 L70.8101266,102.224885 C70.4462025,103.566061 69.9367089,105.119002 69.4272152,106.530767 L67.6803797,111.401355 L66.0063291,111.401355 L64.4050633,106.601355 C63.9683544,105.18959 63.5316456,103.636649 63.2405063,102.224885 L63.2405063,102.224885 C63.1677215,103.707237 63.0949367,105.471943 63.0221519,107.024885 L62.7310127,111.542532 L60.7658228,111.542532 L61.5664557,100.319002 L64.4050633,100.319002 L65.9335443,104.836649 C66.3702532,106.177826 66.7341772,107.448414 67.0253165,108.719002 L67.0981013,108.719002 C67.3892405,107.519002 67.8259494,106.107237 68.2626582,104.836649 L69.8639241,100.319002 L72.6297468,100.319002 L73.2848101,111.542532 L71.1740506,111.542532 L71.028481,106.954296 Z" id="Path"></path>
                <path d="M85.6582278,106.954296 C85.585443,105.542532 85.5126582,103.777826 85.5126582,102.224885 L85.5126582,102.224885 C85.1487342,103.566061 84.6392405,105.119002 84.1297468,106.530767 L82.3829114,111.401355 L80.7088608,111.401355 L79.1075949,106.601355 C78.6708861,105.18959 78.2341772,103.636649 77.943038,102.224885 L77.943038,102.224885 C77.8702532,103.707237 77.7974684,105.471943 77.7246835,107.024885 L77.4335443,111.542532 L75.3955696,111.542532 L76.1962025,100.319002 L79.0348101,100.319002 L80.5632911,104.836649 C81,106.177826 81.3639241,107.448414 81.6550633,108.719002 L81.7278481,108.719002 C82.0189873,107.519002 82.4556962,106.107237 82.8924051,104.836649 L84.4936709,100.319002 L87.2594937,100.319002 L87.914557,111.542532 L85.8037975,111.542532 L85.6582278,106.954296 Z" id="Path"></path>
                <polygon id="Path" points="96.9398734 106.530767 92.5 106.530767 92.5 109.848414 97.4493671 109.848414 97.4493671 111.542532 90.3164557 111.542532 90.3164557 100.319002 97.1582278 100.319002 97.1582278 102.01312 92.4272152 102.01312 92.4272152 104.907237 96.8670886 104.907237 96.8670886 106.530767"></polygon>
                <path d="M99.5601266,100.460179 C100.360759,100.319002 101.598101,100.177826 102.835443,100.177826 C104.509494,100.177826 105.674051,100.460179 106.474684,101.095473 C107.129747,101.58959 107.493671,102.366061 107.493671,103.354296 C107.493671,104.836649 106.474684,105.754296 105.310127,106.177826 L105.310127,106.248414 C106.183544,106.530767 106.693038,107.307237 106.984177,108.436649 C107.348101,109.848414 107.712025,111.119002 107.93038,111.542532 L105.746835,111.542532 C105.601266,111.18959 105.310127,110.271943 104.946203,108.930767 C104.582278,107.448414 104.072785,107.024885 102.835443,106.954296 L101.743671,106.954296 L101.743671,111.542532 L99.6329114,111.542532 L99.6329114,100.460179 L99.5601266,100.460179 Z M101.670886,105.401355 L102.981013,105.401355 C104.436709,105.401355 105.310127,104.695473 105.310127,103.566061 C105.310127,102.366061 104.436709,101.801355 102.981013,101.801355 C102.325949,101.801355 101.889241,101.871943 101.670886,101.871943 L101.670886,105.401355 Z" id="Shape"></path>
                <path d="M118.120253,111.18959 C117.610759,111.401355 116.518987,111.683708 115.063291,111.683708 C111.351266,111.683708 109.022152,109.424885 109.022152,106.036649 C109.022152,102.366061 111.71519,100.107237 115.35443,100.107237 C116.737342,100.107237 117.756329,100.38959 118.193038,100.601355 L117.756329,102.224885 C117.174051,102.01312 116.373418,101.801355 115.427215,101.801355 C113.025316,101.801355 111.278481,103.21312 111.278481,105.895473 C111.278481,108.366061 112.806962,109.919002 115.427215,109.919002 C116.300633,109.919002 117.174051,109.777826 117.756329,109.495473 L118.120253,111.18959 Z" id="Path"></path>
                <polygon id="Path" points="126.417722 106.530767 121.977848 106.530767 121.977848 109.848414 126.927215 109.848414 126.927215 111.542532 119.794304 111.542532 119.794304 100.319002 126.636076 100.319002 126.636076 102.01312 121.905063 102.01312 121.905063 104.907237 126.344937 104.907237 126.344937 106.530767"></polygon>
            </g>
        </g>
    </g>
</svg>