<?xml version="1.0" encoding="UTF-8"?>
<svg width="1043px" height="996px" viewBox="0 0 1043 996" version="1.1" xmlns="http://www.w3.org/2000/svg" xmlns:xlink="http://www.w3.org/1999/xlink">
    <!-- Generator: Sketch 53.2 (72643) - https://sketchapp.com -->
    <title>MCC_MackayRegion_Mono_FinalLogo</title>
    <desc>Created with Sketch.</desc>
    <defs>
        <polygon id="path-1" points="0.3758 0.512173913 182.813 0.512173913 182.813 101.834957 0.3758 101.834957"></polygon>
        <polygon id="path-3" points="0.333885954 0.831639344 903.602407 0.831639344 903.602407 281.671613 0.333885954 281.671613"></polygon>
    </defs>
    <g id="Page-1" stroke="none" stroke-width="1" fill="none" fill-rule="evenodd">
        <g id="MCC_MackayRegion_Mono_FinalLogo">
            <path d="M51.9367567,971.406042 L60,971.406042 L60,974.158992 C59.9811826,983.855182 58.3299584,989.979092 54.9992838,992.324718 C51.6639048,994.773345 43.2619489,996 29.8733897,996 C17.7738204,996 10.176307,993.860377 6.87856281,989.585813 C3.62786204,985.311249 1.98134211,975.254554 2.00015948,959.382953 C2.00015948,946.994677 2.37650689,939.16656 3.11508869,936.020331 C3.82074009,932.803874 5.94710296,929.947922 9.43772521,927.466521 C13.4928686,924.48884 22.313511,923.018728 35.7867484,923 C44.9602166,923 51.1134967,924.456067 54.3124497,927.293291 C57.473768,930.11647 59.0685402,935.575552 59.0685402,943.6799 L59.1249923,945.580747 L51.061749,945.580747 L50.9770708,943.40835 C50.9770708,937.612173 50.0832457,933.927527 48.1591696,932.27482 C46.2868412,930.645523 42.0764545,929.840239 35.4762618,929.840239 C23.8894658,929.826193 16.7764997,930.78598 14.2690851,932.747691 C11.6911053,934.615764 10.4209328,939.953117 10.4209328,948.708248 C10.4021155,968.756093 11.2441928,980.554451 12.9989126,983.995639 C14.7159977,987.44619 20.5729043,989.211262 30.5931541,989.211262 C40.1523784,989.211262 46.1315979,988.457478 48.5025866,986.917137 C50.8547579,985.428297 52.0590696,981.687468 52.077887,975.615059 L51.9367567,971.406042" id="Fill-1" fill="#FFFFFF"></path>
            <path d="M76.3404898,924 L76.3404898,951.434248 L76.5471318,951.536493 C78.3646427,946.916868 83.54948,944.574524 92.0734653,944.574524 C104.650453,944.574524 111,950.146887 111,961.231197 L110.981214,963.252864 L110.981214,995 L103.654814,995 L103.654814,961.891144 C103.654814,954.390063 99.7802751,950.620933 92.0265012,950.620933 C85.7802751,950.620933 81.6098625,951.754926 79.5011741,953.91137 C77.3877893,956.123584 76.3404898,960.501538 76.3404898,967.054526 L76.3404898,995 L69,995 L69,924 L76.3404898,924" id="Fill-2" fill="#FFFFFF"></path>
            <path d="M143.281785,970.752429 C137.622285,970.770956 133.952526,971.363818 132.272509,972.531014 C130.559642,973.679684 129.733712,976.222505 129.733712,980.094633 C129.733712,984.124239 130.540871,986.727273 132.23966,988.042685 C133.919677,989.297884 137.331333,989.941695 142.493397,989.941695 C152.864455,989.95559 158.035905,986.894015 158.054676,980.682863 C158.054676,976.778313 157.045727,974.133594 155.004365,972.781128 C153.000546,971.461084 149.072684,970.752429 143.281785,970.752429 M131.446579,959.650168 L124.163374,959.640905 C124.163374,953.85124 125.467969,950.006902 128.105315,948.015257 C130.766125,946.014349 135.923497,945 143.619666,945 C151.968133,945.018527 157.679254,946.236672 160.555931,948.672963 C163.507694,951.127781 164.985922,955.764145 165,962.59595 L164.985922,995.254291 L157.641711,995.272818 L158.209538,989.941695 L158.073448,989.927799 C155.243697,993.985197 149.584197,996 140.977627,996 C128.330569,996 122,990.956044 122,980.937608 C122,974.948778 123.426607,970.854327 126.256357,968.552357 C129.081414,966.28744 134.191859,965.101716 141.629925,965.101716 C150.442977,965.101716 155.722362,966.880302 157.491542,970.279993 L157.660482,970.215148 L157.660482,964.207792 C157.660482,958.533921 156.853323,954.847062 155.314089,953.15648 C153.699771,951.516847 150.236495,950.650713 144.95711,950.650713 C135.885954,950.650713 131.38088,953.15648 131.38088,958.200436 C131.38088,958.436654 131.38088,958.941513 131.446579,959.650168" id="Fill-3" fill="#FFFFFF"></path>
            <path d="M179.018664,944.7377 L186.316476,944.7377 L186.139164,952.288557 L186.316476,952.46241 C189.106816,946.833333 194.561511,944 202.610568,944 C211.079576,944 216.193644,946.833333 218.018097,952.46241 L218.204742,952.46241 C221.32171,946.833333 227.051706,944.014096 235.404061,944 C247.16735,944.014096 253,950.056661 253,962.14649 L253,995 L245.702188,995 L245.734851,961.526258 C245.720853,957.048369 244.969607,954.059978 243.383126,952.495301 C241.796645,950.897734 238.884986,950.127142 234.470837,950.108347 C228.75484,950.127142 224.769973,951.240741 222.721546,953.38806 C220.677785,955.619956 219.655905,959.773632 219.655905,965.919569 L219.655905,995 L212.362759,995 L212.362759,962.14649 L212.255439,959.839414 C212.255439,953.38806 208.57387,950.108347 201.229397,950.108347 C191.309225,950.108347 186.316476,955.587065 186.316476,966.436429 L186.316476,994.981205 L179,994.981205 L179.018664,944.7377" id="Fill-4" fill="#FFFFFF"></path>
            <path d="M288.855891,950.717274 C283.129071,950.717274 279.304988,951.981087 277.346424,954.396787 C275.411122,956.849796 274.476036,961.737159 274.476036,969.030896 C274.476036,978.040806 275.327383,983.767602 277.095207,986.253255 C278.830466,988.706263 282.840636,989.900123 289.181543,989.900123 C294.517581,989.900123 297.997403,988.678282 299.732663,986.183302 C301.430704,983.63236 302.351834,978.488503 302.351834,970.68178 C302.351834,962.404042 301.481878,957.036337 299.783836,954.532029 C298.067186,951.981087 294.447798,950.717274 288.855891,950.717274 M267,995.253838 L267,924 L274.27134,924 L274.257384,951.775892 L274.410906,951.943779 C276.108947,947.070406 281.514768,944.650042 290.758628,944.650042 C298.016012,944.650042 303.049659,946.55742 305.850265,950.376838 C308.604349,954.140294 310,961.023641 310,970.956927 C310,980.395881 308.502002,986.901483 305.580439,990.529698 C302.691442,994.176566 297.350752,996 289.707238,996 C281.924159,996 276.704425,993.682233 274.103862,989.051363 L273.899167,989.116653 L274.257384,995.253838 L267,995.253838" id="Fill-5" fill="#FFFFFF"></path>
            <path d="M356.419458,966.188693 L356.353744,963.871993 C356.353744,958.48798 355.457222,955.036096 353.673565,953.446839 C351.889908,951.825148 348.069127,951.009669 342.117346,951.009669 C336.18434,951.009669 332.311927,951.991951 330.561127,953.817511 C328.77747,955.717206 327.885641,959.845567 327.885641,966.174793 L356.419458,966.188693 Z M356.419458,980.292768 L363.896736,980.306668 L364,982.122962 C364,987.266038 362.385321,990.838391 359.231065,992.955855 C356.039258,994.985285 350.505227,996 342.530403,996 C333.339876,996 327.233198,994.327342 324.318327,990.972759 C321.473864,987.63671 320,980.681974 320,969.969549 C320,960.132837 321.473864,953.460739 324.351184,950.096889 C327.28483,946.709873 332.9409,944.981614 341.432046,945.000147 C350.692981,945.000147 356.762108,946.473569 359.625347,949.401879 C362.46981,952.362623 363.896736,958.48798 363.896736,967.935486 L363.896736,971.79511 L327.801152,971.79511 C327.782377,979.616292 328.641348,984.643532 330.321741,986.760997 C332.002134,988.924796 335.996586,989.939511 342.22061,989.958044 C348.15831,989.939511 351.960316,989.466904 353.743973,988.452189 C355.52763,987.43284 356.419458,985.199541 356.419458,981.831058 L356.419458,980.292768 L356.419458,980.292768 Z" id="Fill-6" fill="#FFFFFF"></path>
            <path d="M377.014069,945.124162 L384.344232,945.124162 L383.607932,950.884628 L383.743937,951.019894 C386.675064,946.28092 391.458663,944.000055 398.122873,944.000055 C407.389924,943.981398 411.981241,948.701715 412,958.174999 L411.929653,961.617285 L404.716736,961.617285 L404.833981,960.376569 C404.960606,959.028574 404.974675,958.123691 404.974675,957.717893 C404.988744,952.624428 402.165483,949.998402 396.593997,949.998402 C388.43843,949.998402 384.344232,955.040559 384.362991,965.115544 L384.344232,995 L377,995 L377.014069,945.124162" id="Fill-7" fill="#FFFFFF"></path>
            <path d="M465.983646,951.021251 C459.570197,951.021251 455.574017,952.068023 453.971819,954.170829 C452.439484,956.236582 451.689619,961.683498 451.689619,970.516211 C451.689619,979.31187 452.425512,984.763418 453.990449,986.824539 C455.555387,988.922714 459.570197,989.937063 465.983646,989.937063 C472.452986,989.937063 476.500399,988.922714 478.032733,986.824539 C479.56041,984.763418 480.38014,979.31187 480.38014,970.516211 C480.38014,961.683498 479.579041,956.250477 478.046706,954.170829 C476.500399,952.068023 472.462301,951.021251 465.983646,951.021251 M465.983646,945 C475.186969,945 481.181239,946.607211 483.915222,949.770684 C486.635232,952.985106 488.013868,959.891018 487.999895,970.516211 C487.999895,981.108982 486.635232,988.042685 483.901249,991.192262 C481.162608,994.36963 475.172996,996 465.983646,996 C456.794296,996 450.841944,994.355735 448.117276,991.192262 C445.360005,988.042685 444,981.090455 444,970.516211 C444,959.872491 445.360005,952.952684 448.117276,949.770684 C450.841944,946.588684 456.826899,945 465.983646,945" id="Fill-8" fill="#FFFFFF"></path>
            <path d="M501.618094,995 L501.65081,951.158901 L494,951.158901 L494,945.107187 L501.65081,945.121185 L501.65081,937.707018 C501.632115,927.927224 506.670339,923 516.742113,923 C518.247037,923 519.990319,923.167974 522,923.373275 L522,929.476314 C519.644467,929.238351 517.91988,929.103039 516.863629,929.103039 C511.587047,929.103039 508.955767,931.725293 508.937072,937.044456 L508.955767,945.107187 L522,945.121185 L522,951.158901 L508.937072,951.158901 L508.937072,995 L501.618094,995" id="Fill-9" fill="#FFFFFF"></path>
            <path d="M601.963515,971.399791 L610,971.399791 L610,974.153441 C610,983.870828 608.321226,989.963512 604.98719,992.323784 C601.690773,994.76835 593.268688,996 579.86671,996 C567.823739,996 560.18226,993.864516 556.914059,989.584183 C553.655262,985.308533 552,975.26333 552,959.354914 C552,946.986905 552.395006,939.152115 553.137993,936.000404 C553.876277,932.787812 555.987676,929.907719 559.420464,927.430371 C563.544511,924.470666 572.305173,922.981447 585.810605,923.000179 C594.966272,922.981447 601.117075,924.433201 604.29593,927.275829 C607.455975,930.099725 609.035998,935.574244 609.035998,943.666603 L609.111237,945.563249 L601.065348,945.581981 L600.999514,943.390301 C600.999514,937.59265 600.073131,933.916434 598.215664,932.253941 C596.34409,930.633596 592.064861,929.828107 585.53316,929.809375 C573.904005,929.828107 566.840928,930.750673 564.306308,932.736298 C561.724664,934.59548 560.422085,939.938872 560.422085,948.696228 C560.422085,968.744486 561.277931,980.550525 562.994325,984.006637 C564.748338,987.448699 570.626399,989.209537 580.619102,989.209537 C590.169775,989.209537 596.123074,988.455561 598.493108,986.914829 C600.863143,985.444342 602.066969,981.679147 602.04816,975.623927 L601.963515,971.399791" id="Fill-10" fill="#FFFFFF"></path>
            <path d="M638.948816,951.028055 C632.541455,951.028055 628.525804,952.075203 626.980964,954.174134 C625.436125,956.259164 624.673012,961.68951 624.691624,970.511505 C624.654399,979.328867 625.436125,984.777746 626.980964,986.844243 C628.507191,988.93854 632.541455,989.957889 638.930203,989.957889 C645.458545,989.957889 649.436971,988.93854 651.000423,986.844243 C652.52665,984.777746 653.308376,979.328867 653.308376,970.525405 C653.308376,961.68951 652.52665,956.259164 651.000423,954.174134 C649.436971,952.075203 645.458545,951.028055 638.948816,951.028055 M638.930203,945 C648.185279,945 654.127327,946.612424 656.88198,949.772403 C659.636633,952.974083 661,959.896384 661,970.525405 C660.981387,981.121993 659.636633,988.062828 656.88198,991.21354 C654.108714,994.392053 648.166667,996.018377 638.930203,995.999843 C629.805415,995.999843 623.835448,994.392053 621.11802,991.21354 C618.38198,988.062828 617,981.10346 617,970.525405 C617,959.87785 618.38198,952.974083 621.11802,949.772403 C623.854061,946.59389 629.814721,945 638.930203,945" id="Fill-11" fill="#FFFFFF"></path>
            <path d="M673,944.756286 L680.27823,944.737497 L680.142929,952.305057 L680.27823,952.44598 C683.142866,946.827853 688.52689,944 696.607591,944 C705.056869,944 710.170292,946.846643 711.99918,952.460072 L712.181136,952.460072 C715.335036,946.827853 721.087636,944.01879 729.396948,944 C741.12143,944.01879 747,950.073777 747,962.155568 L747,994.98121 L739.731101,995 L739.749764,961.502625 C739.731101,957.040066 738.947292,954.057198 737.342349,952.511744 C735.77473,950.919315 732.840111,950.130146 728.510497,950.130146 C722.715907,950.130146 718.79686,951.243437 716.748692,953.404255 C714.686527,955.630837 713.650779,959.769273 713.650779,965.932302 L713.650779,994.98121 L706.358552,994.98121 L706.358552,962.155568 L706.269907,959.839735 C706.269907,953.404255 702.570141,950.130146 695.277914,950.130146 C685.293676,950.111357 680.27823,955.583863 680.27823,966.425532 L680.27823,994.962421 L673,994.962421 L673,944.756286" id="Fill-12" fill="#FFFFFF"></path>
            <path d="M762.018648,944.719329 L769.337995,944.719329 L769.174825,952.273652 L769.337995,952.447584 C772.135198,946.811223 777.589744,943.98129 785.589744,944.000093 C794.06993,944.000093 799.212121,946.811223 800.969697,952.447584 L801.207459,952.447584 C804.321678,946.811223 810.074592,944.000093 818.335664,944.000093 C830.125874,944.000093 836,950.059535 836,962.150212 L836,995 L828.680653,995 L828.713287,961.510892 C828.699301,957.049751 827.897436,954.041185 826.37296,952.494593 C824.792541,950.900993 821.794872,950.106543 817.449883,950.106543 C811.69697,950.106543 807.762238,951.244158 805.752914,953.392462 C803.67366,955.601879 802.657343,959.762162 802.657343,965.91092 L802.657343,995 L795.361305,995 L795.361305,962.150212 L795.244755,959.832675 C795.244755,953.392462 791.585082,950.106543 784.242424,950.106543 C774.312354,950.106543 769.337995,955.573673 769.337995,966.423317 L769.337995,995 L762,995 L762.018648,944.719329" id="Fill-13" fill="#FFFFFF"></path>
            <path d="M884.432582,966.182834 L884.357425,963.880654 C884.357425,958.502725 883.469627,955.051771 881.689335,953.439782 C879.899648,951.832425 876.038433,951.017166 870.119782,951.017166 C864.18704,951.035695 860.339917,951.999183 858.522045,953.814986 C856.755845,955.723433 855.882139,959.855313 855.882139,966.182834 L884.432582,966.182834 Z M884.432582,980.297003 L891.948329,980.315531 L892,982.103542 C892,987.268392 890.407601,990.839782 887.269777,992.952044 C884.084979,994.985559 878.513932,996 870.533148,996 C861.302872,996 855.21042,994.304632 852.340344,990.960218 C849.442084,987.643597 848,980.667575 848,969.971935 C848,960.142507 849.460873,953.476839 852.340344,950.104632 C855.257393,946.723161 860.992847,945 869.471549,945 C878.683036,945 884.747304,946.486921 887.626775,949.395913 C890.506245,952.374387 891.948329,958.502725 891.948329,967.943052 L891.948329,971.801635 L855.806982,971.76921 C855.806982,979.616076 856.614925,984.641962 858.315362,986.758856 C860.029892,988.908174 863.95687,989.941144 870.223124,989.941144 C876.13238,989.959673 879.9842,989.468665 881.755098,988.454223 C883.507206,987.421253 884.432582,985.202452 884.432582,981.834877 L884.432582,980.297003 L884.432582,980.297003 Z" id="Fill-14" fill="#FFFFFF"></path>
            <path d="M904,945.137789 L911.329401,945.137789 L910.616168,950.896681 L910.752246,951.03191 C913.666175,946.298894 918.461724,944 925.148277,944 C934.406221,944 939,948.714364 939,958.189723 L939,961.626406 L931.694061,961.626406 L931.830138,960.367377 C931.942754,959.038402 931.970908,958.138429 931.970908,957.709427 C931.970908,952.631343 929.174286,950.010698 923.609197,950.010698 C915.444564,950.010698 911.310631,955.070129 911.310631,965.105056 L911.301247,994.981348 L904,995 L904,945.137789" id="Fill-15" fill="#FFFFFF"></path>
            <path d="M980.658052,977.436874 L987.962742,977.436874 L987.999963,980.110588 C988.018574,990.703497 981.030265,996.018487 967.062954,995.999952 C958.139136,995.999952 952.206984,994.327143 949.299066,990.972258 C946.423717,987.640543 945,980.717618 945,970.254455 C945,960.421492 946.488854,953.767329 949.415382,950.245626 C952.341911,946.756361 957.929766,944.981608 966.146379,945.000144 C974.232717,945.000144 979.741476,946.181767 982.691268,948.586719 C985.636407,950.889727 987.120609,955.393799 987.120609,961.890413 L979.839182,961.890413 L979.801961,960.606845 C979.801961,956.811747 978.885385,954.258513 976.968486,952.937875 C975.079502,951.649673 971.241051,951.024108 965.602016,951.005573 C960.093257,951.024108 956.557229,952.242802 955.003237,954.680191 C953.439941,957.052706 952.676903,962.483541 952.658292,970.949528 C952.658292,979.109683 953.551605,984.341264 955.347535,986.644272 C957.129507,988.840702 961.293645,989.962086 967.853908,989.962086 C973.413847,989.962086 976.912654,989.262379 978.410813,987.793459 C979.913625,986.333806 980.658052,982.881611 980.658052,977.436874" id="Fill-16" fill="#FFFFFF"></path>
            <path d="M1033.39051,966.187466 L1033.35296,963.866757 C1033.35296,958.502725 1032.46573,955.033243 1030.6772,953.444414 C1028.87928,951.832425 1025.0581,951.021798 1019.1151,951.021798 C1013.14862,951.021798 1009.30398,951.985286 1007.50606,953.814986 C1005.77385,955.728065 1004.84907,959.841417 1004.84907,966.187466 L1033.39051,966.187466 Z M1033.39051,980.301635 L1040.88264,980.301635 L1041,982.108174 C1040.98122,987.273025 1039.38516,990.821253 1036.21649,992.956676 C1033.04313,994.990191 1027.48507,996 1019.5282,996 C1010.24754,996 1004.21534,994.309264 1001.31895,990.955586 C998.441334,987.643597 996.981402,980.672207 997.000179,969.976567 C997.000179,960.123978 998.460111,953.462943 1001.31895,950.090736 C1004.27167,946.727793 1009.96588,945 1018.42034,945 C1027.65875,945 1033.7285,946.486921 1036.59204,949.400545 C1039.46026,952.374387 1040.86386,958.502725 1040.88264,967.947684 L1040.90142,971.787738 L1004.76458,971.76921 C1004.76458,979.620708 1005.60017,984.628065 1007.28542,986.763488 C1009.00354,988.912807 1012.99841,989.945777 1019.20899,989.945777 C1025.11913,989.945777 1028.96377,989.468665 1030.74292,988.454223 C1032.4939,987.421253 1033.39051,985.188556 1033.39051,981.820981 L1033.39051,980.301635 L1033.39051,980.301635 Z" id="Fill-17" fill="#FFFFFF"></path>
            <polyline id="Fill-18" fill="#FFFFFF" points="3 886.815167 1042 887 1042 870.203316 3 870 3 886.815167"></polyline>
            <polyline id="Fill-19" fill="#FFFFFF" points="53.0023294 796.836482 16.426669 719 0 719 0 818 12.4015295 818 12.4015295 741.369923 48.3668967 818 57.5352701 818 93.5984705 741.346543 93.5984705 818 106 818 106 719 89.7689975 719 53.0023294 796.836482"></polyline>
            <path d="M135.825414,783.234036 L154.41609,736.034621 L173.244511,783.234036 L135.825414,783.234036 Z M147.661353,719 L108,818 L122.213383,818 L130.34797,797.355517 L178.754586,797.355517 L187.080301,818 L201,818 L161.138195,719 L147.661353,719 L147.661353,719 Z" id="Fill-20" fill="#FFFFFF"></path>
            <path d="M269.302526,785.411139 C269.302526,797.548879 268.095241,800.718697 267.577833,801.516986 C267.242217,802.030506 265.545491,803.720453 257.821661,803.823157 C246.746331,804.005223 240.761179,804.093922 239.870864,804.093922 C238.225413,804.093922 235.745583,804.051907 232.426713,803.963208 C229.051908,803.869841 226.525465,803.823157 224.856707,803.823157 C220.316568,803.823157 217.393911,802.684077 215.911607,800.317217 C214.858146,798.678623 213.599586,794.780541 213.599586,785.546522 C213.599586,768.068177 213.7907,756.425283 214.17293,750.944627 C214.918743,740.072013 215.715831,737.499746 216.032802,736.874185 C216.857858,735.221585 219.5894,734.026485 223.901134,733.433603 C228.110318,732.910746 235.251482,732.639982 245.13351,732.639982 C262.552915,732.639982 266.426483,734.694061 267.246878,735.534366 C267.908787,736.248625 269.013524,738.307372 269.013524,744.184839 L269.027508,745.963485 C268.952926,746.668408 268.920297,747.420014 268.920297,748.22764 L268.920297,751.50483 L281.3008,751.50483 L281.23088,749.105292 C280.969845,740.142038 280.475744,734.371944 279.711285,731.430876 C278.093802,725.628103 274.527882,721.786041 269.064798,719.988722 C264.762387,718.672244 258.642056,718 250.871612,718 C237.171951,718 227.462393,718.326785 221.985325,718.961682 C215.683202,719.750636 211.105772,721.739358 208.397537,724.829813 C205.363009,728.186365 203.326006,734.063832 202.169995,742.793668 C201.396213,748.526416 201,757.28893 201,768.838456 C201,774.701918 201.065259,779.935151 201.195776,784.542824 C201.522069,794.789878 202.482304,801.825098 204.10911,806.017287 C206.574955,812.767737 211.404097,816.768523 218.424066,817.88893 C222.62859,818.626531 228.170916,819 234.901882,819 C236.46809,819 244.811878,818.780587 260.390056,818.332424 C270.169534,818.127016 276.229269,815.713474 278.928181,810.93774 C281.02112,807.179709 282,799.070765 282,785.411139 L282,783.076959 L269.302526,783.076959 L269.302526,785.411139" id="Fill-21" fill="#FFFFFF"></path>
            <path d="M396.681195,783.234036 L415.311676,736.034621 L434.185083,783.234036 L396.681195,783.234036 Z M408.542477,719 L370.417261,813.969299 L321.696776,772.12389 L368.922337,719 L350.399303,719 L309.363658,765.287597 L301.440565,765.287597 L301.440565,719 L289,719 L289,818 L301.440565,818 L301.440565,779.409078 L309.541181,779.409078 L353.93106,818 L383.040019,818 L391.192023,797.355517 L439.702285,797.355517 L448.045825,818 L462,818 L422.048175,719 L408.542477,719 L408.542477,719 Z" id="Fill-22" fill="#FFFFFF"></path>
            <polyline id="Fill-23" fill="#FFFFFF" points="498.909232 761.411203 470.626843 719 454 719 492.75097 776.173295 492.75097 818 505.146625 818 505.146625 776.173295 544 719 527.373157 719 498.909232 761.411203"></polyline>
            <path d="M585.373279,733.257085 L627.406174,733.257085 C633.272093,733.257085 635.270782,734.599093 635.940111,735.398687 C636.837197,736.464812 638.347834,739.597723 638.347834,748.598999 C638.347834,758.395192 637.055658,761.677735 636.293367,762.757888 C635.122043,764.408511 632.119361,765.287597 627.596746,765.287597 L585.373279,765.287597 L585.373279,733.257085 Z M648.14141,767.747166 C650.065729,764.254204 651,758.254912 651,749.407944 C651,737.624457 649.484715,729.838938 646.351886,725.611846 C643.102854,721.221094 637.27412,719 629.033014,719 L573,719 L573,818 L585.373279,818 L585.373279,779.409078 L628.359037,779.409078 C631.045647,779.409078 634.508492,779.815889 635.758834,781.770452 C636.442107,782.841253 637.585543,785.950784 637.585543,794.750992 L637.585543,818 L649.856564,818 L649.856564,790.023569 C649.856564,783.63617 648.55974,778.992915 645.835945,775.789864 C644.892378,774.723739 643.739646,773.797893 642.377749,773.031032 C645.017877,771.674995 646.942197,769.907472 648.14141,767.747166 L648.14141,767.747166 Z" id="Fill-24" fill="#FFFFFF"></path>
            <polyline id="Fill-25" fill="#FFFFFF" points="674.487457 779.409078 723.494391 779.409078 723.494391 765.287597 674.487457 765.287597 674.487457 733.257085 730.329186 733.257085 730.329186 719 662 719 662 818 731 818 731 803.883195 674.487457 803.883195 674.487457 779.409078"></polyline>
            <path d="M824.827359,765.159787 L780.598617,765.159787 L780.598617,779.258239 L812.196575,779.258239 L812.196575,790.396949 C812.196575,796.843957 811.076742,799.612295 810.152879,800.760712 C809.597629,801.428287 807.969205,802.684077 803.284569,803.594407 C801.012241,804.01456 796.710216,804.229304 790.495142,804.229304 C779.791404,804.229304 771.429983,804.182621 765.462206,804.093922 C762.018719,804.01456 759.438437,803.622417 757.861338,802.964178 C755.421035,801.839103 753.909261,799.733672 753.242027,796.563855 C752.822089,794.38373 752.612121,790.905801 752.612121,786.223434 C752.612121,764.720961 752.677444,752.807303 752.794093,750.781234 C753.507987,737.761174 756.242246,734.992836 756.942142,734.577352 C759.951693,733.732378 761.608113,733.410261 762.438656,733.29822 C765.98946,732.864063 770.758083,732.639982 776.609211,732.639982 C779.478784,732.639982 783.225559,732.691333 787.872866,732.775364 C793.686666,732.868731 797.424109,732.910746 799.061865,732.910746 C799.071197,732.910746 799.071197,732.910746 799.080529,732.910746 C806.452764,733.018119 808.524455,734.273908 809.107702,734.843448 C810.120217,735.791125 811.813965,738.914259 811.813965,749.170649 L811.813965,751.50483 L824.169457,751.50483 L824.141461,749.137971 C824.006148,739.096325 822.993632,732.210492 821.052588,728.116339 C818.602953,722.78507 813.834331,719.615253 806.863369,718.695586 C803.065269,718.233418 798.044684,718 791.908931,718 L791.899599,718 L766.138771,718.406147 C754.809793,718.606887 747.320909,722.411602 743.863424,729.708251 C741.269144,735.193575 740,745.879455 740,762.372776 L740,774.095031 C740,786.984377 740.713894,796.069009 742.169677,801.87645 C743.872756,808.631569 747.13427,813.309267 751.865565,815.764826 C755.94829,817.94495 762.294011,819 771.24801,819 L771.257342,819 L800.960916,818.598521 C811.631992,818.500485 818.658945,814.621077 821.855135,807.058331 C823.96882,801.960481 825,791.750774 825,775.845667 C825,772.124983 824.972004,769.323966 824.906681,767.414606 L824.827359,765.159787" id="Fill-26" fill="#FFFFFF"></path>
            <polygon id="Fill-27" fill="#FFFFFF" points="837 818 849 818 849 719 837 719"></polygon>
            <g id="Group-31" transform="translate(860.000000, 717.000000)">
                <mask id="mask-2" fill="white">
                    <use xlink:href="#path-1"></use>
                </mask>
                <g id="Clip-29"></g>
                <path d="M74.6335,59.9168696 C74.6335,67.3688696 74.142625,73.153913 73.1562,77.1358261 C71.89395,82.5733913 69.729425,85.5926957 66.58315,86.3533913 C61.192875,87.5554783 46.083275,87.1657391 24.279075,86.7055652 C19.34695,86.5553043 16.3082,85.1653913 14.985175,82.4653913 C14.124975,80.713913 13.1105,76.4126957 13.1105,65.8756522 C13.1105,56.7707826 13.204,47.2526957 13.395675,37.326087 C13.638775,23.9434783 14.74675,20.0648696 15.4106,18.9003478 C16.481175,16.9563478 20.267925,15.8012174 26.41555,15.6368696 C37.6636,15.373913 43.45125,15.2424348 43.773825,15.2377391 C50.393625,15.2377391 54.3627,15.2377391 56.74695,15.0921739 L57.9718,15.1532174 C62.857175,15.3692174 66.728075,15.9092174 69.467625,16.7591304 C71.085175,17.2615652 74.825175,20.4311304 74.825175,39.0446957 C74.825175,41.1013913 74.7831,43.561913 74.68025,46.4215652 C74.591425,49.3610435 74.535325,51.0984348 74.535325,51.6478261 L74.535325,55.9302609 C74.600775,57.7052174 74.6335,59.0293913 74.6335,59.9168696 Z M84.221925,13.1012174 C82.342575,8.39617391 79.135525,4.96834783 74.7644,2.93513043 C71.9781,1.52643478 68.336275,0.709391304 63.8249,0.512173913 L41.473725,0.512173913 C33.292475,0.512173913 26.897075,0.606086957 22.4605,0.793913043 C16.196,1.08973913 11.5397,2.73791304 8.655225,5.6586087 C5.3126,8.94556522 3.0499,14.6507826 1.745575,23.0982609 C0.838625,28.9725217 0.3758,38.6690435 0.3758,51.9201739 C0.3758,70.482087 1.689475,82.657913 4.400975,89.1426087 C6.027875,93.0446957 7.781,95.7869565 9.758525,97.5290435 C11.787475,99.3086957 14.489625,100.477913 17.7668,100.989739 C21.128125,101.557913 26.279975,101.834957 33.507525,101.834957 L49.916775,101.834957 C57.396775,101.834957 63.10495,101.600174 66.91975,101.14 C73.721875,100.233739 78.60725,97.6605217 81.435625,93.4907826 C84.165825,89.4994783 85.848825,82.8316522 86.587475,73.1069565 C87.045625,67.3876522 87.270025,58.7523478 87.270025,47.449913 C87.270025,39.1386087 87.17185,32.9873043 86.980175,29.197913 C86.7137,22.1638261 85.802075,16.8906087 84.221925,13.1012174 L84.221925,13.1012174 Z" id="Fill-28" fill="#FFFFFF" mask="url(#mask-2)"></path>
                <polyline id="Fill-30" fill="#FFFFFF" mask="url(#mask-2)" points="170.48035 1.4653913 170.48035 81.9347826 115.039525 1.4653913 98.52275 1.4653913 98.52275 100.881739 110.97695 100.881739 110.97695 20.017913 166.6001 100.881739 182.9252 100.881739 182.9252 1.4653913 170.48035 1.4653913"></polyline>
            </g>
            <path d="M606.747598,672.686279 L605.002598,663 C603.887598,669.159262 603.682598,674.348001 606.747598,672.686279" id="Fill-32" fill="#FFFFFF"></path>
            <g id="Group-37" transform="translate(17.000000, 280.000000)" fill="#FFFFFF">
                <path d="M832.861927,142.735871 C792.698257,130.895929 739.938991,165.617082 739.400917,165.972047 C659.162477,219.482976 612.467064,330.624294 602.360642,356.695518 L590.242294,391.603494 C592.263578,390.174294 595.641743,385.769929 600.980367,376.559529 C600.980367,376.559529 705.277706,206.732271 840.479174,158.910118 C840.479174,158.910118 845.541743,157.135294 853.870183,155.019518 C847.867156,149.218647 840.872202,145.108529 832.861927,142.735871" id="Fill-33"></path>
                <path d="M885.349817,52.1871765 C856.892752,51.4679059 828.398257,61.6030824 801.714495,76.9926706 C811.119083,78.7161176 820.275688,81.4297294 828.856789,85.5585294 C855.732385,98.4727059 873.488807,121.391282 879.987798,150.073365 C924.507523,144.183753 992.005321,149.424153 1002.47202,232.448529 C1002.47202,232.448529 1003.09899,265.670424 1010.75835,232.943612 C1030.64367,147.854835 978.024771,54.3683412 885.349817,52.1871765" id="Fill-35"></path>
                <path d="M229.812661,20.7494471 C234.585138,17.3259059 239.59156,14.2293059 244.738349,11.4222824 C229.850092,6.26128235 215.097523,2.70229412 200.775413,1.30111765 C87.4665138,-9.80087059 -27.1056881,86.8522824 6.25954128,208.320271 C16.5484404,245.652282 17.4374312,207.811176 17.4374312,207.811176 C31.0436697,116.916859 115.53055,107.790529 175.308165,113.129012 C179.341376,75.7829882 198.295596,43.3224 229.812661,20.7494471" id="Fill-36"></path>
            </g>
            <path d="M586.953775,659.200224 C586.271617,657.423222 519.060366,476.327935 391.468789,394.716745 C390.735235,394.202349 315.225953,346.662849 257.976078,363.675312 C240.492275,368.870707 226.498692,379.85539 216,395.843739 C237.628146,399.346305 252.476763,403.667227 252.476763,403.667227 C434.327934,458.300709 574.544107,652.283943 574.544107,652.283943 C584.014889,666.102477 588.827374,670.442105 591,669.96512 C589.719786,667.093858 588.388176,663.638055 586.953775,659.200224" id="Fill-38" fill="#FFFFFF"></path>
            <path d="M256.115142,356.257468 C317.210391,338.142202 393.573602,386.276517 396.737655,388.311152 C526.992745,471.487961 595.202434,655.171054 595.9326,657.154238 C597.523988,661.854946 598.64732,664.778272 599.663,667 C599.864264,664.661339 600,661.943815 600,658.93162 C600,656.882954 599.962556,654.750095 599.864264,652.678042 C599.82682,652.374016 595.244559,607.485761 595.244559,607.485761 C584.146969,537.344648 563.341914,478.358946 533.456588,432.189105 C497.996724,377.389607 443.004915,307.931382 382.101568,288.071475 C338.633279,273.861772 288.771355,281.387583 251.907325,307.762999 C218.876667,331.411536 200.411889,366.711282 200,407.039148 C200,407.651877 200,408.199123 200,408.779111 C200,409.055073 200,409.260875 200,409.53216 C200.271472,408.797821 200.580388,408.133641 200.805055,407.380592 C212.857477,380.757278 231.457992,363.60554 256.115142,356.257468" id="Fill-39" fill="#FFFFFF"></path>
            <path d="M842.295967,372.824376 C806.840851,355.793941 761.28776,361.25433 728.927488,386.491696 C669.494355,432.855956 625.928134,513.804235 612.380017,602.795962 C612.380017,602.795962 609.154275,636.324338 609.14025,636.613939 C609.06545,638.033921 609,639.533309 609,641 C609.201025,640.43481 609.341274,640.112512 609.532949,639.495941 C609.986423,638.132011 658.802656,500.902957 751.900383,438.760089 C754.163078,437.274714 808.336848,401.560314 852.263043,414.475605 C869.158452,419.510934 881.986622,431.281832 891,449.386594 C889.288954,415.008098 871.986821,387.12228 842.295967,372.824376" id="Fill-40" fill="#FFFFFF"></path>
            <g id="Group-44" transform="translate(82.000000, 0.000000)">
                <mask id="mask-4" fill="white">
                    <use xlink:href="#path-3"></use>
                </mask>
                <g id="Clip-42"></g>
                <path d="M893.39601,123.816148 C871.202562,95.0638525 820.186149,103.198033 779.488031,141.99541 C738.738485,180.858197 723.660778,235.741721 745.812149,264.498689 C767.991572,293.241639 818.993959,285.056066 859.724804,246.286721 C900.479026,207.423934 915.52868,152.62918 893.39601,123.816148" id="Fill-41" fill="#FFFFFF" mask="url(#mask-4)"></path>
                <path d="M14.5737887,22.3234426 C45.4351649,-13.6239344 116.419603,-3.44336066 173.036974,45.1094262 C229.757201,93.7089344 250.660278,162.25377 219.784876,198.243197 C188.937526,234.213934 117.99049,223.972623 61.2889639,175.424508 C4.62016495,126.801639 -16.2548608,58.3268852 14.5737887,22.3234426" id="Fill-43" fill="#FFFFFF" mask="url(#mask-4)"></path>
            </g>
            <path d="M408.311551,128.467927 C443.109096,105.403011 500.705194,131.074899 536.973916,185.81663 C573.275435,240.502196 574.456125,303.523521 539.672635,326.532272 C504.96411,349.606548 447.316474,323.897217 411.029011,269.169527 C374.746233,214.427796 373.528061,151.448595 408.311551,128.467927" id="Fill-45" fill="#FFFFFF"></path>
            <path d="M743.915833,246.325922 C719.126775,229.119294 677.960238,248.220658 652.003036,288.994811 C626.134969,329.656961 625.210774,376.554005 650.079585,393.709297 C674.901482,410.855256 715.997649,391.744559 741.973617,351.049741 C767.883906,310.33159 768.779952,263.471881 743.915833,246.325922" id="Fill-46" fill="#FFFFFF"></path>
        </g>
    </g>
</svg>