<?xml version="1.0" encoding="UTF-8"?>
<svg width="903px" height="335px" viewBox="0 0 903 335" version="1.1" xmlns="http://www.w3.org/2000/svg" xmlns:xlink="http://www.w3.org/1999/xlink">
    <!-- Generator: Sketch 53.2 (72643) - https://sketchapp.com -->
    <title>RPCC Logo vector</title>
    <desc>Created with Sketch.</desc>
    <defs>
        <polygon id="path-1" points="0 1000 1200 1000 1200 0 0 0"></polygon>
    </defs>
    <g id="Page-1" stroke="none" stroke-width="1" fill="none" fill-rule="evenodd">
        <g id="RPCC-Logo-vector" transform="translate(-164.000000, -289.000000)">
            <path d="M557.9541,460.3471 C558.3621,459.9731 558.7521,459.5781 559.1321,459.1711 C558.3601,459.9281 557.9541,460.3471 557.9541,460.3471" id="Fill-1" fill="#FFFFFF"></path>
            <path d="M801.8464,483.1071 C798.5944,478.6521 794.8484,474.5541 790.8484,470.7631 C776.4224,457.0891 758.4354,447.5321 739.5854,441.5161 C707.2784,431.2041 672.4434,430.9141 639.0824,435.2761 C620.6964,437.6811 603.4114,441.1631 586.1294,447.7841 C572.3904,453.0481 558.3904,457.6471 544.2294,461.6311 C525.3054,466.9551 506.0374,471.1741 486.5434,473.7651 C476.0184,475.1641 465.4244,476.0841 454.8094,476.3621 C449.4824,476.5021 444.1504,476.4811 438.8254,476.2691 C435.8264,476.1501 425.8754,477.0761 423.6504,475.1241 C432.6444,483.0141 446.4104,486.6821 457.7514,489.0081 C495.9594,496.8451 534.9444,488.7961 571.8414,478.6121 C617.1224,466.1141 664.6614,453.4821 712.0274,454.9261 C746.0724,455.9641 778.6054,466.3581 805.1304,488.1141 C803.8394,487.0551 802.8394,484.4671 801.8464,483.1071" id="Fill-3" fill="#FFFFFF"></path>
            <path d="M696.933,470.8298 C675.403,471.8768 654.498,476.4948 633.332,480.1758 C614.388,483.4708 594.855,487.6438 575.571,488.0628 C578.736,487.9938 582.764,489.7668 585.884,490.3438 C594.709,491.9788 603.669,492.9708 612.642,493.2238 C637.951,493.9398 661.903,485.0498 686.758,482.0298 C706.721,479.6038 726.989,479.3748 746.962,481.8218 C765.191,484.0558 786.262,487.4508 801.259,498.8768 C790.553,490.7208 780.669,484.0718 767.61,479.6108 C744.974,471.8768 720.729,469.6718 696.933,470.8298" id="Fill-5" fill="#FFFFFF"></path>
            <path d="M669.3124,378.1396 L723.1254,364.1346 C723.1254,364.1346 672.1124,311.2456 567.8754,406.7506 C567.8754,406.7506 616.5174,366.1376 669.3124,378.1396" id="Fill-7" fill="#FFFFFF"></path>
            <path d="M723.1249,358.4682 C723.1249,358.4682 673.1329,293.4962 567.8759,289.2502 C567.8759,289.2502 593.2339,372.0222 569.1969,397.7712 C580.2889,386.8962 659.2039,313.4242 723.1249,358.4682" id="Fill-9" fill="#FFFFFF"></path>
            <path d="M792.5331,417.8766 C786.8421,417.8766 784.4341,413.9586 784.4121,409.9746 C784.3901,405.9696 786.9951,401.8976 792.5331,401.8976 C794.6121,401.8976 796.5821,402.6856 798.1581,404.2396 L796.2321,406.1006 C795.2251,405.1156 793.8681,404.6556 792.5331,404.6556 C788.8341,404.6556 787.2361,407.4136 787.2581,409.9746 C787.2801,412.5136 788.7461,415.1626 792.5331,415.1626 C793.8681,415.1626 795.3781,414.6156 796.3851,413.6086 L798.3551,415.6006 C796.7791,417.1546 794.7441,417.8766 792.5331,417.8766 L792.5331,417.8766 Z M778.0871,417.8766 C772.3951,417.8766 769.9881,413.9586 769.9661,409.9746 C769.9441,405.9696 772.5491,401.8976 778.0871,401.8976 C780.1661,401.8976 782.1361,402.6856 783.7121,404.2396 L781.7861,406.1006 C780.7791,405.1156 779.4221,404.6556 778.0871,404.6556 C774.3871,404.6556 772.7891,407.4136 772.8111,409.9746 C772.8331,412.5136 774.3001,415.1626 778.0871,415.1626 C779.4221,415.1626 780.9321,414.6156 781.9391,413.6086 L783.9091,415.6006 C782.3331,417.1546 780.2971,417.8766 778.0871,417.8766 L778.0871,417.8766 Z M762.8301,413.0176 L758.4961,413.0176 L758.4961,417.5266 L755.6071,417.5266 L755.6071,402.2046 C758.0151,402.2046 760.4231,402.1826 762.8301,402.1826 C770.3161,402.1826 770.3381,413.0176 762.8301,413.0176 L762.8301,413.0176 Z M754.4251,417.5266 L750.9891,417.5266 L746.5231,412.4046 L743.7441,412.4046 L743.7441,417.5266 L740.8541,417.5266 L740.8541,402.1826 C743.2841,402.1826 745.7131,402.2046 748.1431,402.2046 C751.7551,402.2266 753.6591,404.6336 753.6591,407.2826 C753.6591,409.3836 752.6961,411.5066 749.7851,412.0976 L754.4251,417.3296 L754.4251,417.5266 Z M538.8151,445.3356 C679.8461,369.2446 824.8121,380.3956 824.8121,380.3956 C807.4241,380.6216 790.0751,382.1306 773.2671,384.4736 C721.0191,390.7026 639.5041,406.3416 579.2111,445.4026 L594.6281,438.7066 C625.5131,427.2596 700.0331,409.0616 792.6701,451.8946 C861.5451,413.1936 874.6651,346.2856 874.6651,346.2856 C630.6491,365.3086 538.8151,445.3356 538.8151,445.3356 L538.8151,445.3356 Z" id="Fill-11" fill="#FFFFFF"></path>
            <path d="M762.8303,404.9404 L758.4963,404.9404 L758.4963,410.3684 L762.8303,410.3684 C766.5293,410.3684 766.5073,404.9404 762.8303,404.9404" id="Fill-13" fill="#FFFFFF"></path>
            <path d="M750.7699,407.3482 C750.7699,406.1222 749.9599,404.8962 748.1429,404.8962 L743.7439,404.8962 L743.7439,409.7992 L748.1429,409.7992 C749.9819,409.7992 750.7699,408.5742 750.7699,407.3482" id="Fill-15" fill="#FFFFFF"></path>
            <path d="M175.1927,549.8294 L175.1927,531.8474 L191.3287,531.8474 C197.9917,531.8474 200.9617,536.3424 200.9617,540.8384 C200.9617,545.3334 198.0717,549.8294 191.3287,549.8294 L175.1927,549.8294 Z M211.5587,540.5974 C211.5587,530.8844 204.5747,522.0534 191.3287,521.9734 C182.4177,521.9734 173.5067,521.8924 164.5957,521.8924 L164.5957,578.1674 L175.1927,578.1674 L175.1927,559.3824 L185.3877,559.3824 L201.7647,578.1674 L214.3677,578.1674 L214.3677,577.4444 L197.3497,558.2584 C208.0267,556.0914 211.5587,548.3044 211.5587,540.5974 L211.5587,540.5974 Z" id="Fill-17" fill="#FFFFFF"></path>
            <polygon id="Fill-19" fill="#FFFFFF" points="218.5402 578.1673 260.6062 578.1673 260.6062 567.7313 229.0562 567.7313 229.0562 555.0473 259.4822 555.0473 259.4822 545.1733 229.0562 545.1733 229.0562 532.2483 260.6062 532.2483 260.6062 521.9733 218.5402 521.9733"></polygon>
            <path d="M290.1459,567.9722 L278.5859,567.9722 L278.5859,532.0082 L290.1459,532.0082 C302.3479,532.0082 307.4859,540.7582 307.7269,549.5082 C307.9679,558.6602 302.9099,567.9722 290.1459,567.9722 M290.1459,521.9732 L268.0699,521.9732 L268.0699,578.1672 L290.1459,578.1672 C309.8139,578.1672 318.4839,563.7982 318.2429,549.5882 C318.0019,535.7002 309.4129,521.9732 290.1459,521.9732" id="Fill-21" fill="#FFFFFF"></path>
            <path d="M367.5309,563.7979 C363.8379,567.4909 358.2989,569.4979 353.4019,569.4979 C339.5139,569.4979 334.1359,559.7839 334.0549,550.4719 C333.9749,541.0789 339.8349,530.9649 353.4019,530.9649 C358.2989,530.9649 363.2759,532.6499 366.9689,536.2629 L374.0339,529.4389 C368.2539,523.7389 361.0279,520.8489 353.4019,520.8489 C333.0919,520.8489 323.5389,535.7809 323.6189,550.4719 C323.6989,565.0819 332.5299,579.4519 353.4019,579.4519 C361.5099,579.4519 368.9759,576.8029 374.7559,571.1029 L367.5309,563.7979 Z" id="Fill-23" fill="#FFFFFF"></path>
            <polygon id="Fill-25" fill="#FFFFFF" points="419.3876 568.3735 390.4876 568.3735 390.4876 521.9735 379.8906 521.9735 379.8906 578.1675 419.3876 578.1675"></polygon>
            <mask id="mask-2" fill="white">
                <use xlink:href="#path-1"></use>
            </mask>
            <g id="Clip-28"></g>
            <polygon id="Fill-27" fill="#FFFFFF" mask="url(#mask-2)" points="426.932 578.167 437.448 578.167 437.448 521.973 426.932 521.973"></polygon>
            <polygon id="Fill-29" fill="#FFFFFF" mask="url(#mask-2)" points="486.1755 547.5816 457.9985 547.5816 457.9985 532.2486 487.7815 532.2486 487.7815 522.0536 447.4015 522.0536 447.4015 578.1676 457.9985 578.1676 457.9985 557.3756 486.1755 557.3756"></polygon>
            <polygon id="Fill-30" fill="#FFFFFF" mask="url(#mask-2)" points="495.0846 578.1673 505.6816 578.1673 505.6816 557.3753 533.8586 557.3753 533.8586 547.5813 505.6816 547.5813 505.6816 532.2483 535.4646 532.2483 535.4646 522.0533 495.0846 522.0533"></polygon>
            <polygon id="Fill-31" fill="#FFFFFF" mask="url(#mask-2)" points="542.6071 578.1673 584.6721 578.1673 584.6721 567.7313 553.1231 567.7313 553.1231 555.0473 583.5491 555.0473 583.5491 545.1733 553.1231 545.1733 553.1231 532.2483 584.6721 532.2483 584.6721 521.9733 542.6071 521.9733"></polygon>
            <path d="M635.5662,551.9167 L619.6712,551.9167 L619.6712,532.0077 L635.5662,532.0077 C649.0522,532.0077 649.1332,551.9167 635.5662,551.9167 M635.5662,521.8927 C626.7352,521.8927 617.9052,521.9737 609.0742,521.9737 L609.0742,578.1677 L619.6712,578.1677 L619.6712,561.6297 L635.5662,561.6297 C663.1012,561.6297 663.0212,521.8927 635.5662,521.8927" id="Fill-32" fill="#FFFFFF" mask="url(#mask-2)"></path>
            <polygon id="Fill-33" fill="#FFFFFF" mask="url(#mask-2)" points="663.1794 578.1673 705.2454 578.1673 705.2454 567.7313 673.6954 567.7313 673.6954 555.0473 704.1214 555.0473 704.1214 545.1733 673.6954 545.1733 673.6954 532.2483 705.2454 532.2483 705.2454 521.9733 663.1794 521.9733"></polygon>
            <polygon id="Fill-34" fill="#FFFFFF" mask="url(#mask-2)" points="752.0446 556.8136 724.5096 521.9736 715.9196 521.9736 715.9196 578.1676 726.5166 578.1676 726.5166 540.2766 756.0586 578.2476 756.0586 578.1676 762.6416 578.1676 762.6416 521.8926 752.0446 521.8926"></polygon>
            <polygon id="Fill-35" fill="#FFFFFF" mask="url(#mask-2)" points="772.433 578.167 782.949 578.167 782.949 521.973 772.433 521.973"></polygon>
            <polygon id="Fill-36" fill="#FFFFFF" mask="url(#mask-2)" points="802.2956 521.9732 793.7056 521.9732 793.7056 578.1672 804.3026 578.1672 804.3026 540.2762 833.8446 578.2472 833.8446 578.1672 840.4276 578.1672 840.4276 521.8932 829.8306 521.8932 829.8306 556.8132"></polygon>
            <path d="M895.8964,561.7105 C895.8964,548.3045 884.9784,545.2535 873.2584,543.8085 C866.5144,543.0055 860.7344,541.6415 860.7344,536.7445 C860.7344,532.5695 864.5074,529.2785 872.3754,529.2785 C878.4764,529.2785 883.7744,532.3285 885.7014,535.5395 L894.1304,531.2045 C889.8754,522.5345 880.8044,520.0465 872.0534,520.0465 C861.6984,520.1265 850.2984,524.8635 850.2984,536.4235 C850.2984,549.0265 860.8954,552.0775 872.3754,553.4415 C879.8404,554.2445 885.3804,556.4125 885.3804,561.7105 C885.3804,567.8115 879.1184,570.1395 872.4554,570.1395 C865.6314,570.1395 859.1294,567.4095 856.6404,561.2285 L847.8104,565.8045 C851.9844,576.0805 860.8154,579.6125 872.2944,579.6125 C884.8184,579.6125 895.8964,574.2335 895.8964,561.7105" id="Fill-37" fill="#FFFFFF" mask="url(#mask-2)"></path>
            <path d="M953.3735,554.2446 L953.3735,522.0536 L942.8575,522.0536 L942.8575,554.2446 C942.8575,563.8776 937.8795,569.7386 929.1295,569.7386 C920.3795,569.7386 914.5995,564.3596 914.5995,554.2446 L914.5995,522.0536 L904.0825,522.0536 L904.0825,554.2446 C904.0825,571.1836 915.5625,579.3716 929.0495,579.3716 C943.1785,579.3716 953.3735,570.8626 953.3735,554.2446" id="Fill-38" fill="#FFFFFF" mask="url(#mask-2)"></path>
            <polygon id="Fill-39" fill="#FFFFFF" mask="url(#mask-2)" points="1003.2239 568.3735 974.3239 568.3735 974.3239 521.9735 963.7269 521.9735 963.7269 578.1675 1003.2239 578.1675"></polygon>
            <path d="M1025.4586,557.6966 L1035.8946,533.7736 L1046.3306,557.6966 L1025.4586,557.6966 Z M1055.3226,578.1676 L1066.8816,578.1676 L1041.6746,521.9736 L1030.1146,521.9736 L1004.9076,578.1676 L1016.3876,578.1676 L1021.2036,567.5706 L1050.5856,567.5706 L1055.3226,578.1676 Z" id="Fill-40" fill="#FFFFFF" mask="url(#mask-2)"></path>
            <path d="M349.7892,619.2976 C348.6552,620.2406 347.2712,620.7126 345.6362,620.7126 C344.2912,620.7126 343.0422,620.3656 341.8892,619.6736 C340.7352,618.9816 339.8852,617.9356 339.3382,616.5366 C338.7912,615.1366 338.5182,613.4986 338.5182,611.6226 C338.5182,610.1686 338.7492,608.7566 339.2102,607.3866 C339.6712,606.0176 340.4722,604.9266 341.6102,604.1136 C342.7492,603.3016 344.1662,602.8946 345.8612,602.8946 C347.3362,602.8946 348.5602,603.2616 349.5332,603.9936 C350.5062,604.7256 351.2492,605.8946 351.7602,607.4996 L354.6352,606.8226 C354.0432,604.7866 352.9942,603.2056 351.4892,602.0826 C349.9852,600.9586 348.1292,600.3966 345.9222,600.3966 C343.9752,600.3966 342.1922,600.8406 340.5722,601.7286 C338.9522,602.6166 337.7032,603.9156 336.8252,605.6266 C335.9472,607.3366 335.5082,609.3406 335.5082,611.6376 C335.5082,613.7446 335.8972,615.7166 336.6742,617.5516 C337.4522,619.3876 338.5862,620.7896 340.0752,621.7576 C341.5652,622.7266 343.4992,623.2106 345.8762,623.2106 C348.1742,623.2106 350.1182,622.5806 351.7082,621.3216 C353.2982,620.0626 354.3992,618.2346 355.0112,615.8366 L352.0912,615.0996 C351.6902,616.9556 350.9232,618.3546 349.7892,619.2976" id="Fill-41" fill="#FFFFFF" mask="url(#mask-2)"></path>
            <polygon id="Fill-42" fill="#FFFFFF" mask="url(#mask-2)" points="382.3296 609.8322 370.8626 609.8322 370.8626 600.7732 367.9436 600.7732 367.9436 622.8342 370.8626 622.8342 370.8626 612.4352 382.3296 612.4352 382.3296 622.8342 385.2486 622.8342 385.2486 600.7732 382.3296 600.7732"></polygon>
            <path d="M403.2979,613.7749 L405.7209,607.3039 C406.2319,605.9099 406.6289,604.5049 406.9099,603.0909 C407.2509,604.2849 407.7719,605.8099 408.4749,607.6649 L410.7769,613.7749 L403.2979,613.7749 Z M405.4049,600.7729 L396.9329,622.8339 L400.0329,622.8339 L402.4549,616.1529 L411.6799,616.1529 L414.2529,622.8339 L417.5789,622.8339 L408.5499,600.7729 L405.4049,600.7729 Z" id="Fill-43" fill="#FFFFFF" mask="url(#mask-2)"></path>
            <path d="M440.9095,616.1224 C440.3775,617.6774 439.9865,618.8564 439.7355,619.6584 C439.5145,618.9364 439.1635,617.8484 438.6825,616.3934 L433.4605,600.7734 L429.0665,600.7734 L429.0665,622.8334 L431.8805,622.8334 L431.8805,604.0534 L438.2615,622.8334 L440.8945,622.8334 L447.3055,604.3694 L447.3055,622.8334 L450.1195,622.8334 L450.1195,600.7734 L446.1915,600.7734 L440.9095,616.1224 Z" id="Fill-44" fill="#FFFFFF" mask="url(#mask-2)"></path>
            <path d="M477.1519,618.2968 C476.8609,618.8338 476.4899,619.2428 476.0379,619.5238 C475.5869,619.8038 475.0249,620.0048 474.3529,620.1248 C473.9719,620.1958 473.3099,620.2308 472.3669,620.2308 L466.8739,620.2308 L466.8739,612.6458 L471.9749,612.6458 C473.3799,612.6458 474.4559,612.7688 475.2029,613.0148 C475.9509,613.2608 476.5349,613.6868 476.9559,614.2938 C477.3779,614.9008 477.5879,615.6158 477.5879,616.4388 C477.5879,617.1408 477.4429,617.7608 477.1519,618.2968 L477.1519,618.2968 Z M466.8739,603.3768 L471.2829,603.3768 C472.8679,603.3768 473.9869,603.4798 474.6389,603.6848 C475.2909,603.8908 475.7919,604.2718 476.1439,604.8288 C476.4949,605.3858 476.6699,606.0298 476.6699,606.7628 C476.6699,607.5348 476.4819,608.1768 476.1059,608.6888 C475.7299,609.1998 475.1709,609.5668 474.4279,609.7868 C473.8659,609.9578 472.9379,610.0428 471.6439,610.0428 L466.8739,610.0428 L466.8739,603.3768 Z M476.4599,611.0958 C477.4929,610.5848 478.2659,609.9128 478.7769,609.0798 C479.2889,608.2468 479.5449,607.3598 479.5449,606.4158 C479.5449,605.4028 479.2559,604.4328 478.6789,603.5048 C478.1019,602.5768 477.3049,601.8898 476.2869,601.4428 C475.2679,600.9968 473.9169,600.7728 472.2309,600.7728 L463.9549,600.7728 L463.9549,622.8338 L472.3669,622.8338 C473.7709,622.8338 474.9569,622.7108 475.9259,622.4648 C476.8939,622.2198 477.6989,621.8558 478.3409,621.3748 C478.9829,620.8928 479.5219,620.2078 479.9589,619.3198 C480.3949,618.4318 480.6129,617.4718 480.6129,616.4388 C480.6129,615.1548 480.2539,614.0408 479.5369,613.0978 C478.8199,612.1548 477.7939,611.4878 476.4599,611.0958 L476.4599,611.0958 Z" id="Fill-45" fill="#FFFFFF" mask="url(#mask-2)"></path>
            <polygon id="Fill-46" fill="#FFFFFF" mask="url(#mask-2)" points="496.8561 612.7215 509.0601 612.7215 509.0601 610.1335 496.8561 610.1335 496.8561 603.3765 509.8881 603.3765 509.8881 600.7735 493.9371 600.7735 493.9371 622.8335 510.3991 622.8335 510.3991 620.2305 496.8561 620.2305"></polygon>
            <path d="M532.9178,610.5094 L526.6428,610.5094 L526.6428,603.2114 L533.6248,603.2114 C535.2598,603.2114 536.4568,603.5474 537.2138,604.2194 C537.9718,604.8914 538.3498,605.7494 538.3498,606.7924 C538.3498,607.5054 538.1548,608.1644 537.7638,608.7714 C537.3718,609.3784 536.7998,609.8194 536.0478,610.0954 C535.2958,610.3714 534.2518,610.5094 532.9178,610.5094 M536.9058,613.8954 C536.5038,613.5344 535.9178,613.1684 535.1448,612.7964 C537.2618,612.5054 538.8268,611.8234 539.8398,610.7504 C540.8528,609.6764 541.3598,608.3574 541.3598,606.7924 C541.3598,605.5784 541.0538,604.4704 540.4418,603.4664 C539.8298,602.4634 539.0128,601.7644 537.9888,601.3674 C536.9658,600.9714 535.4708,600.7734 533.5048,600.7734 L523.7228,600.7734 L523.7228,622.8334 L526.6428,622.8334 L526.6428,613.0374 L530.0288,613.0374 C530.7808,613.0374 531.3228,613.0724 531.6538,613.1424 C532.1048,613.2534 532.5488,613.4494 532.9858,613.7294 C533.4218,614.0104 533.9158,614.5024 534.4678,615.2044 C535.0198,615.9064 535.7218,616.9204 536.5748,618.2444 L539.4938,622.8334 L543.1658,622.8334 L539.3288,616.8294 C538.5658,615.6564 537.7578,614.6774 536.9058,613.8954" id="Fill-47" fill="#FFFFFF" mask="url(#mask-2)"></path>
            <path d="M588.0593,618.3947 C586.6393,619.9397 584.8313,620.7117 582.6343,620.7117 C580.4773,620.7117 578.6843,619.9477 577.2543,618.4177 C575.8253,616.8877 575.1103,614.7927 575.1103,612.1347 C575.1103,608.8137 575.8553,606.4437 577.3443,605.0247 C578.8343,603.6047 580.6123,602.8947 582.6793,602.8947 C584.1343,602.8947 585.4453,603.2637 586.6143,604.0007 C587.7833,604.7387 588.6713,605.7767 589.2783,607.1157 C589.8853,608.4557 590.1883,610.0227 590.1883,611.8187 C590.1883,614.6577 589.4783,616.8497 588.0593,618.3947 M588.1723,601.8417 C586.5363,600.8687 584.7013,600.3817 582.6643,600.3817 C579.5543,600.3817 577.0163,601.4177 575.0503,603.4897 C573.0833,605.5617 572.1003,608.4277 572.1003,612.0897 C572.1003,614.0257 572.5223,615.8617 573.3643,617.5967 C574.2073,619.3327 575.4463,620.7027 577.0813,621.7057 C578.7163,622.7087 580.5723,623.2107 582.6493,623.2107 C584.5653,623.2107 586.3513,622.7567 588.0063,621.8487 C589.6623,620.9407 590.9413,619.6037 591.8443,617.8377 C592.7463,616.0727 593.1983,614.0707 593.1983,611.8337 C593.1983,609.6267 592.7693,607.6527 591.9113,605.9117 C591.0543,604.1717 589.8073,602.8147 588.1723,601.8417" id="Fill-48" fill="#FFFFFF" mask="url(#mask-2)"></path>
            <polygon id="Fill-49" fill="#FFFFFF" mask="url(#mask-2)" points="606.3563 622.8339 609.2753 622.8339 609.2753 612.8119 619.6293 612.8119 619.6293 610.2089 609.2753 610.2089 609.2753 603.3769 621.2393 603.3769 621.2393 600.7729 606.3563 600.7729"></polygon>
            <path d="M665.5233,619.2976 C664.3893,620.2406 663.0053,620.7126 661.3703,620.7126 C660.0253,620.7126 658.7763,620.3656 657.6233,619.6736 C656.4693,618.9816 655.6193,617.9356 655.0723,616.5366 C654.5253,615.1366 654.2523,613.4986 654.2523,611.6226 C654.2523,610.1686 654.4823,608.7566 654.9443,607.3866 C655.4053,606.0176 656.2053,604.9266 657.3443,604.1136 C658.4833,603.3016 659.9003,602.8946 661.5953,602.8946 C663.0703,602.8946 664.2943,603.2616 665.2673,603.9936 C666.2403,604.7256 666.9833,605.8946 667.4943,607.4996 L670.3683,606.8226 C669.7763,604.7866 668.7283,603.2056 667.2243,602.0826 C665.7193,600.9586 663.8633,600.3966 661.6563,600.3966 C659.7093,600.3966 657.9263,600.8406 656.3063,601.7286 C654.6863,602.6166 653.4373,603.9156 652.5593,605.6266 C651.6813,607.3366 651.2423,609.3406 651.2423,611.6376 C651.2423,613.7446 651.6313,615.7166 652.4083,617.5516 C653.1863,619.3876 654.3203,620.7896 655.8093,621.7576 C657.2993,622.7266 659.2333,623.2106 661.6113,623.2106 C663.9083,623.2106 665.8513,622.5806 667.4423,621.3216 C669.0323,620.0626 670.1333,618.2346 670.7453,615.8366 L667.8253,615.0996 C667.4243,616.9556 666.6573,618.3546 665.5233,619.2976" id="Fill-50" fill="#FFFFFF" mask="url(#mask-2)"></path>
            <path d="M698.6581,618.3947 C697.2381,619.9397 695.4301,620.7117 693.2331,620.7117 C691.0761,620.7117 689.2831,619.9477 687.8531,618.4177 C686.4241,616.8877 685.7091,614.7927 685.7091,612.1347 C685.7091,608.8137 686.4541,606.4437 687.9431,605.0247 C689.4331,603.6047 691.2111,602.8947 693.2781,602.8947 C694.7331,602.8947 696.0441,603.2637 697.2131,604.0007 C698.3821,604.7387 699.2701,605.7767 699.8771,607.1157 C700.4841,608.4557 700.7871,610.0227 700.7871,611.8187 C700.7871,614.6577 700.0771,616.8497 698.6581,618.3947 M698.7711,601.8417 C697.1351,600.8687 695.2991,600.3817 693.2631,600.3817 C690.1531,600.3817 687.6151,601.4177 685.6491,603.4897 C683.6821,605.5617 682.6991,608.4277 682.6991,612.0897 C682.6991,614.0257 683.1211,615.8617 683.9631,617.5967 C684.8061,619.3327 686.0451,620.7027 687.6801,621.7057 C689.3151,622.7087 691.1711,623.2107 693.2481,623.2107 C695.1641,623.2107 696.9501,622.7567 698.6051,621.8487 C700.2611,620.9407 701.5401,619.6037 702.4431,617.8377 C703.3451,616.0727 703.7971,614.0707 703.7971,611.8337 C703.7971,609.6267 703.3681,607.6527 702.5101,605.9117 C701.6531,604.1717 700.4061,602.8147 698.7711,601.8417" id="Fill-51" fill="#FFFFFF" mask="url(#mask-2)"></path>
            <path d="M728.5574,616.1224 C728.0254,617.6774 727.6344,618.8564 727.3834,619.6584 C727.1624,618.9364 726.8124,617.8484 726.3304,616.3934 L721.1084,600.7734 L716.7144,600.7734 L716.7144,622.8334 L719.5284,622.8334 L719.5284,604.0534 L725.9094,622.8334 L728.5424,622.8334 L734.9534,604.3694 L734.9534,622.8334 L737.7674,622.8334 L737.7674,600.7734 L733.8394,600.7734 L728.5574,616.1224 Z" id="Fill-52" fill="#FFFFFF" mask="url(#mask-2)"></path>
            <path d="M763.4755,616.1224 C762.9435,617.6774 762.5525,618.8564 762.3015,619.6584 C762.0805,618.9364 761.7305,617.8484 761.2485,616.3934 L756.0265,600.7734 L751.6325,600.7734 L751.6325,622.8334 L754.4465,622.8334 L754.4465,604.0534 L760.8275,622.8334 L763.4605,622.8334 L769.8715,604.3694 L769.8715,622.8334 L772.6855,622.8334 L772.6855,600.7734 L768.7575,600.7734 L763.4755,616.1224 Z" id="Fill-53" fill="#FFFFFF" mask="url(#mask-2)"></path>
            <polygon id="Fill-54" fill="#FFFFFF" mask="url(#mask-2)" points="789.6206 612.7215 801.8246 612.7215 801.8246 610.1335 789.6206 610.1335 789.6206 603.3765 802.6526 603.3765 802.6526 600.7735 786.7016 600.7735 786.7016 622.8335 803.1636 622.8335 803.1636 620.2305 789.6206 620.2305"></polygon>
            <path d="M825.6821,610.5094 L819.4071,610.5094 L819.4071,603.2114 L826.3891,603.2114 C828.0241,603.2114 829.2211,603.5474 829.9781,604.2194 C830.7361,604.8914 831.1151,605.7494 831.1151,606.7924 C831.1151,607.5054 830.9191,608.1644 830.5281,608.7714 C830.1361,609.3784 829.5641,609.8194 828.8121,610.0954 C828.0601,610.3714 827.0161,610.5094 825.6821,610.5094 M829.6701,613.8954 C829.2681,613.5344 828.6821,613.1684 827.9091,612.7964 C830.0261,612.5054 831.5911,611.8234 832.6041,610.7504 C833.6171,609.6764 834.1241,608.3574 834.1241,606.7924 C834.1241,605.5784 833.8181,604.4704 833.2061,603.4664 C832.5941,602.4634 831.7771,601.7644 830.7531,601.3674 C829.7301,600.9714 828.2351,600.7734 826.2691,600.7734 L816.4881,600.7734 L816.4881,622.8334 L819.4071,622.8334 L819.4071,613.0374 L822.7931,613.0374 C823.5451,613.0374 824.0871,613.0724 824.4181,613.1424 C824.8691,613.2534 825.3131,613.4494 825.7501,613.7294 C826.1861,614.0104 826.6801,614.5024 827.2321,615.2044 C827.7841,615.9064 828.4861,616.9204 829.3391,618.2444 L832.2581,622.8334 L835.9301,622.8334 L832.0931,616.8294 C831.3301,615.6564 830.5221,614.6774 829.6701,613.8954" id="Fill-55" fill="#FFFFFF" mask="url(#mask-2)"></path>
            <path d="M861.3827,619.2976 C860.2487,620.2406 858.8647,620.7126 857.2297,620.7126 C855.8847,620.7126 854.6357,620.3656 853.4827,619.6736 C852.3287,618.9816 851.4787,617.9356 850.9317,616.5366 C850.3847,615.1366 850.1117,613.4986 850.1117,611.6226 C850.1117,610.1686 850.3417,608.7566 850.8037,607.3866 C851.2647,606.0176 852.0657,604.9266 853.2037,604.1136 C854.3427,603.3016 855.7597,602.8946 857.4547,602.8946 C858.9297,602.8946 860.1537,603.2616 861.1267,603.9936 C862.0997,604.7256 862.8427,605.8946 863.3537,607.4996 L866.2287,606.8226 C865.6357,604.7866 864.5877,603.2056 863.0837,602.0826 C861.5787,600.9586 859.7227,600.3966 857.5157,600.3966 C855.5687,600.3966 853.7857,600.8406 852.1657,601.7286 C850.5457,602.6166 849.2967,603.9156 848.4187,605.6266 C847.5407,607.3366 847.1017,609.3406 847.1017,611.6376 C847.1017,613.7446 847.4907,615.7166 848.2677,617.5516 C849.0457,619.3876 850.1797,620.7896 851.6687,621.7576 C853.1587,622.7266 855.0927,623.2106 857.4707,623.2106 C859.7677,623.2106 861.7117,622.5806 863.3017,621.3216 C864.8917,620.0626 865.9927,618.2346 866.6047,615.8366 L863.6847,615.0996 C863.2837,616.9556 862.5167,618.3546 861.3827,619.2976" id="Fill-56" fill="#FFFFFF" mask="url(#mask-2)"></path>
            <polygon id="Fill-57" fill="#FFFFFF" mask="url(#mask-2)" points="882.4263 612.7215 894.6303 612.7215 894.6303 610.1335 882.4263 610.1335 882.4263 603.3765 895.4583 603.3765 895.4583 600.7735 879.5073 600.7735 879.5073 622.8335 895.9693 622.8335 895.9693 620.2305 882.4263 620.2305"></polygon>
            <polygon id="Fill-58" fill="#FFFFFF" mask="url(#mask-2)" points="164.596 510.935 1066.882 510.935 1066.882 507.988 164.596 507.988"></polygon>
        </g>
    </g>
</svg>