<?xml version="1.0" encoding="UTF-8"?>
<svg width="1327px" height="366px" viewBox="0 0 1327 366" version="1.1" xmlns="http://www.w3.org/2000/svg" xmlns:xlink="http://www.w3.org/1999/xlink">
    <!-- Generator: Sketch 53.2 (72643) - https://sketchapp.com -->
    <title>TC Colour Landscape CMYK</title>
    <desc>Created with Sketch.</desc>
    <defs>
        <polygon id="path-1" points="0.26345679 0.870107143 1063.66727 0.870107143 1063.66727 365.736429 0.26345679 365.736429"></polygon>
    </defs>
    <g id="Page-1" stroke="none" stroke-width="1" fill="none" fill-rule="evenodd">
        <g id="TC-Colour-Landscape-CMYK">
            <path d="M489,242.833036 L489,242.497794 C489,209.242755 514.080569,182 550.020265,182 C572.091518,182 585.293675,189.35325 596.161628,200.050089 L579.778068,218.93387 C570.754535,210.742518 561.558915,205.731545 549.857003,205.731545 C530.128779,205.731545 515.916163,222.109839 515.916163,242.166964 L515.916163,242.497794 C515.916163,262.55492 529.79343,279.268455 549.857003,279.268455 C563.226834,279.268455 571.42082,273.91783 580.616441,265.558857 L597,282.104772 C584.962739,294.976268 571.588495,303 549.01863,303 C514.57918,303 489,276.423317 489,242.833036" id="Fill-1" fill="#FFFFFF"></path>
            <polyline id="Fill-2" fill="#FFFFFF" points="613 184 638.755272 184 638.755272 230.299725 686.249142 230.299725 686.249142 184 712 184 712 301 686.249142 301 686.249142 254.034124 638.755272 254.034124 638.755272 301 613 301 613 184"></polyline>
            <path d="M802.586227,252.377761 L787.167473,214.702097 L771.753095,252.377761 L802.586227,252.377761 Z M775.730293,184 L799.269707,184 L849,301 L822.31033,301 L811.704468,274.945489 L762.634853,274.945489 L752.024616,301 L726,301 L775.730293,184 L775.730293,184 Z" id="Fill-3" fill="#FFFFFF"></path>
            <polyline id="Fill-4" fill="#FFFFFF" points="863 184 890.508446 184 921 233.476076 951.491554 184 979 184 979 301 953.647964 301 953.647964 224.617586 921 274.592172 920.335143 274.592172 888.019608 225.116097 888.019608 301 863 301 863 184"></polyline>
            <path d="M1057.57889,252.69741 L1027.9619,252.69741 L1027.9619,278.439086 L1058.40891,278.439086 C1069.72169,278.439086 1076.54185,274.428943 1076.54185,265.733683 L1076.54185,265.402813 C1076.54185,257.545756 1070.72297,252.69741 1057.57889,252.69741 Z M1070.05106,218.600166 C1070.05106,210.915162 1064.0653,206.565326 1053.24877,206.565326 L1027.9619,206.565326 L1027.9619,231.305569 L1051.58435,231.305569 C1062.90152,231.305569 1070.05106,227.626296 1070.05106,218.935447 L1070.05106,218.600166 Z M1003,184 L1057.07386,184 C1070.38921,184 1080.86759,187.679273 1087.52526,194.367256 C1092.84789,199.714113 1095.5092,206.230044 1095.5092,214.254742 L1095.5092,214.590023 C1095.5092,227.793937 1088.52655,235.148071 1080.20445,239.828777 C1093.6779,245.007994 1102,252.86505 1102,268.579164 L1102,268.910034 C1102,290.306286 1084.69268,301 1058.40891,301 L1003,301 L1003,184 L1003,184 Z" id="Fill-5" fill="#FFFFFF"></path>
            <polyline id="Fill-6" fill="#FFFFFF" points="1119 184 1207.16703 184 1207.16703 206.900607 1144.54883 206.900607 1144.54883 230.635006 1199.65267 230.635006 1199.65267 253.535613 1144.54883 253.535613 1144.54883 278.103805 1208 278.103805 1208 301 1119 301 1119 184"></polyline>
            <path d="M1277.75363,240.83021 C1290.27233,240.83021 1297.45042,234.146639 1297.45042,224.282305 L1297.45042,223.951435 C1297.45042,212.918027 1289.76999,207.235889 1277.24689,207.235889 L1251.70717,207.235889 L1251.70717,240.83021 L1277.75363,240.83021 Z M1226,184 L1279.42367,184 C1294.28219,184 1305.80062,188.177784 1313.47664,195.8672 C1319.98935,202.387542 1323.49688,211.581313 1323.49688,222.61472 L1323.49688,222.94559 C1323.49688,241.831643 1313.30919,253.703254 1298.45508,259.217752 L1327,301 L1296.94808,301 L1271.91069,263.563176 L1251.70717,263.563176 L1251.70717,301 L1226,301 L1226,184 L1226,184 Z" id="Fill-7" fill="#FFFFFF"></path>
            <polyline id="Fill-8" fill="#FFFFFF" points="505.62681 89.9995202 488 89.9423385 488.026593 81 533 81.1451536 532.973407 90.087492 515.351029 90.0259117 515.204767 136 505.480548 135.96921 505.62681 89.9995202"></polyline>
            <path d="M584.957747,109.722948 L584.957747,109.564015 C584.992676,98.8492693 577.303938,90.0064036 566.484692,89.9754999 C555.665445,89.949011 548.081494,98.5887954 548.050932,109.290296 L548.050932,109.44923 C548.016003,120.150731 555.696008,128.998011 566.519621,129.0245 C577.338867,129.068648 584.918452,120.424449 584.957747,109.722948 Z M538.000122,109.564015 L538.000122,109.405081 C538.056882,93.9046813 549.932729,80.9427973 566.663703,81.0001899 C583.41214,81.0575824 595.052217,93.9223406 594.999824,109.435985 L594.999824,109.594918 C594.960529,125.108563 583.067217,138.057202 566.336244,137.99981 C549.592172,137.942417 537.956461,125.082074 538.000122,109.564015 L538.000122,109.564015 Z" id="Fill-9" fill="#FFFFFF"></path>
            <path d="M650.953404,109.714157 L650.953404,109.555224 C650.992699,98.8537085 643.303957,90.006416 632.484706,89.9799271 C621.665454,89.9357789 614.081499,98.575575 614.050936,109.277091 L614.050936,109.436024 C614.016008,120.150784 621.696017,128.980417 632.519635,129.024565 C643.338886,129.055469 650.918475,120.428917 650.953404,109.714157 Z M604.000122,109.568468 L604.000122,109.40512 C604.056882,93.8914546 615.928369,80.9427974 632.663717,81.0001901 C649.412163,81.048753 661.047879,93.9223583 660.999852,109.422779 L660.999852,109.581713 C660.956191,125.095378 649.067239,138.044036 632.336258,137.999887 C615.592178,137.942495 603.956461,125.06889 604.000122,109.568468 L604.000122,109.568468 Z" id="Fill-10" fill="#FFFFFF"></path>
            <polyline id="Fill-11" fill="#FFFFFF" points="666 82.043554 676.447094 82.0696864 689.439897 122.426829 703.075733 82 711.245784 82.0304878 724.621764 122.54007 737.865614 82.2700348 748 82.3005226 728.739822 137 720.331937 136.973868 706.951552 97.8623693 693.315716 136.88676 684.91664 136.860627 666 82.043554"></polyline>
            <path d="M798.945459,109.711912 L798.945459,109.552967 C798.989117,98.8506423 791.305323,90.0026812 780.482525,89.9761903 C769.659727,89.9452843 762.085078,98.5724879 762.045786,109.274812 L762.045786,109.433757 C762.01086,120.149327 769.694654,128.997288 780.517452,129.023779 C791.331518,129.054685 798.919264,120.427482 798.945459,109.711912 Z M752.000099,109.566212 L752.000099,109.407267 C752.052489,93.9056741 763.931808,80.9427929 780.665888,81.0001899 C797.4087,81.0531717 809.043535,93.9189195 808.999878,109.433757 L808.999878,109.592703 C808.947488,125.111956 797.072534,138.061592 780.338454,137.99978 C763.591277,137.942383 751.960807,125.08105 752.000099,109.566212 L752.000099,109.566212 Z" id="Fill-12" fill="#FFFFFF"></path>
            <path d="M865.952656,109.725119 L865.952656,109.566173 C865.991954,98.8638347 858.306986,90.0202768 847.478168,89.9717101 C836.658083,89.9452191 829.07791,98.5900951 829.042978,109.288019 L829.042978,109.451379 C829.008046,120.149303 836.693014,128.997276 847.513099,129.028182 C858.333185,129.067919 865.92209,120.440703 865.952656,109.725119 Z M819.000123,109.579419 L819.000123,109.420473 C819.043787,93.9056143 830.929288,80.955961 847.665925,81.0001126 C864.406929,81.0575096 876.043542,93.9321052 875.999878,109.433719 L875.999878,109.592664 C875.956213,125.107523 864.070712,138.061592 847.334075,137.99978 C830.584338,137.960043 818.956458,125.081033 819.000123,109.579419 L819.000123,109.579419 Z" id="Fill-13" fill="#FFFFFF"></path>
            <polyline id="Fill-14" fill="#FFFFFF" points="887.171108 83 897.424439 83.0263515 914.008775 109.022119 930.755444 83.1449333 941 83.1712848 940.828892 138 931.19857 137.969257 931.330192 98.6484069 913.951739 124.437755 913.644621 124.437755 896.590835 98.6923261 896.463601 137.855067 887 137.824323 887.171108 83"></polyline>
            <path d="M988.306628,98.6457651 C988.324307,94.3263551 984.868126,91.6520157 978.640811,91.6256242 L964.687915,91.5816384 L964.643719,106.171743 L977.880628,106.215729 C984.107942,106.228925 988.293369,103.8185 988.306628,98.7909184 L988.306628,98.6457651 Z M979.984391,114.375103 L964.62162,114.335516 L964.568584,129.387472 L980.647341,129.444654 C987.188452,129.45785 991.289905,126.889076 991.307584,121.949466 L991.307584,121.791117 C991.320843,117.15061 987.625999,114.405893 979.984391,114.375103 Z M955.176787,83 L979.918096,83.0703774 C986.229384,83.1011674 991.188253,84.8342097 994.330638,87.996792 C996.770295,90.4248106 998.016642,93.4862255 998.003383,97.0974633 L998.003383,97.2558124 C997.990124,103.844892 994.184789,107.372557 990.083335,109.466283 C996.536053,111.691967 1001.02202,115.386778 1000.99992,122.842378 L1000.9955,123.000727 C1000.96456,132.796375 992.836789,138.026292 980.541269,137.999901 L955,137.911929 L955.176787,83 L955.176787,83 Z" id="Fill-15" fill="#FFFFFF"></path>
            <g id="Group-20">
                <mask id="mask-2" fill="white">
                    <use xlink:href="#path-1"></use>
                </mask>
                <g id="Clip-17"></g>
                <path d="M1044.47444,116.226536 L1035.06465,94.2666429 L1025.59777,116.169429 L1044.47444,116.226536 Z M1030.80543,82.7397857 L1039.73222,82.7705357 L1063.66727,138.072214 L1053.48906,138.041464 L1047.97403,124.783821 L1022.04549,124.695964 L1016.368,137.914071 L1006.50154,137.883321 L1030.80543,82.7397857 L1030.80543,82.7397857 Z" id="Fill-16" fill="#FFFFFF" mask="url(#mask-2)"></path>
                <polyline id="Fill-18" fill="#FFFFFF" mask="url(#mask-2)" points="231.069169 220.231821 150.17037 220.231821 150.17037 148.29 378.591798 148.29 378.591798 0.870107143 0 0.870107143 0 365.995607 300.367086 365.995607 231.069169 220.231821"></polyline>
                <polygon id="Fill-19" fill="#FFFFFF" mask="url(#mask-2)" points="301.183802 365.736429 378.591798 365.736429 378.591798 220.231821 301.183802 220.231821"></polygon>
            </g>
        </g>
    </g>
</svg>